<?xml version="1.0" encoding="utf-8"?>
<!-- Generator: Adobe Illustrator 15.0.0, SVG Export Plug-In . SVG Version: 6.00 Build 0)  -->
<!DOCTYPE svg PUBLIC "-//W3C//DTD SVG 1.1//EN" "http://www.w3.org/Graphics/SVG/1.1/DTD/svg11.dtd">
<svg version="1.1" id="Layer_1" xmlns="http://www.w3.org/2000/svg" xmlns:xlink="http://www.w3.org/1999/xlink" x="0px" y="0px"
	 width="249.077px" height="56.46px" viewBox="0 0 249.077 56.46" enable-background="new 0 0 249.077 56.46" xml:space="preserve">
<g>
	<polygon points="28.624,55.359 0,55.359 0,1.647 10.664,1.647 10.664,44.694 28.624,44.694 28.624,55.359 	"/>
	<path d="M59.705,42.503L54.68,29.386l-5.142,13.123L59.705,42.503L59.705,42.503z M75.907,55.359H64.48l-1.911-5.153l-15.825-0.012
		l-1.988,5.165h-11.43L54.657,0L75.907,55.359L75.907,55.359z"/>
	<polygon points="94.813,55.359 84.148,55.359 84.148,44.539 94.813,44.539 94.813,55.359 	"/>
	<path d="M144.713,48.312c-5.49,5.432-12.078,8.148-19.761,8.148c-7.738,0-14.337-2.734-19.8-8.195
		c-5.462-5.461-8.195-12.035-8.195-19.721c0-7.738,2.733-14.338,8.195-19.799c5.463-5.459,12.062-8.193,19.8-8.193
		c7.683,0,14.271,2.719,19.761,8.156l-7.514,7.526c-3.393-3.349-7.461-5.017-12.203-5.017c-4.802,0-8.897,1.689-12.287,5.068
		c-3.392,3.38-5.087,7.473-5.087,12.258c0,4.736,1.695,8.796,5.087,12.176c3.39,3.387,7.485,5.074,12.287,5.074
		c4.742,0,8.811-1.672,12.203-5.022L144.713,48.312L144.713,48.312z"/>
	<path d="M191.685,28.58c0-4.766-1.697-8.823-5.083-12.179c-3.389-3.352-7.444-5.028-12.172-5.028c-4.777,0-8.86,1.677-12.247,5.028
		c-3.388,3.355-5.078,7.413-5.078,12.179c0,4.722,1.69,8.77,5.078,12.146c3.387,3.381,7.47,5.068,12.247,5.068
		c4.728,0,8.783-1.688,12.172-5.068C189.987,37.35,191.685,33.302,191.685,28.58L191.685,28.58z M202.347,28.544
		c0,7.686-2.733,14.26-8.193,19.721c-5.465,5.461-12.036,8.195-19.724,8.195c-7.733,0-14.337-2.734-19.801-8.195
		c-5.461-5.461-8.189-12.035-8.189-19.721c0-7.738,2.729-14.338,8.189-19.799c5.464-5.459,12.067-8.193,19.801-8.193
		c7.688,0,14.259,2.734,19.724,8.193C199.613,14.206,202.347,20.806,202.347,28.544L202.347,28.544z"/>
	<polygon points="249.077,55.359 238.412,55.359 238.412,30.345 229.317,41.029 220.219,30.345 220.219,55.359 209.553,55.359 
		209.553,0.159 229.317,23.37 249.077,0.159 249.077,55.359 	"/>
</g>
</svg>
