<?xml version="1.0" encoding="utf-8"?>
<!-- Generator: Adobe Illustrator 15.0.0, SVG Export Plug-In . SVG Version: 6.00 Build 0)  -->
<!DOCTYPE svg PUBLIC "-//W3C//DTD SVG 1.1//EN" "http://www.w3.org/Graphics/SVG/1.1/DTD/svg11.dtd">
<svg version="1.1" id="Layer_1" xmlns="http://www.w3.org/2000/svg" xmlns:xlink="http://www.w3.org/1999/xlink" x="0px" y="0px"
	 width="330.485px" height="149.756px" viewBox="0 0 330.485 149.756" enable-background="new 0 0 330.485 149.756"
	 xml:space="preserve">
<g>
	<path fill="#00AFD2" d="M330.484,106.717c0,9.511-7.702,17.217-17.213,17.217c0,0-148.028,10.326-148.028,25.822
		c0-15.496-148.032-25.822-148.032-25.822C7.703,123.934,0,116.228,0,106.717V43.035c0-9.504,7.703-17.216,17.211-17.216
		c0,0,148.032-10.329,148.032-25.819c0,15.49,148.028,25.819,148.028,25.819c9.511,0,17.213,7.712,17.213,17.216V106.717
		L330.484,106.717z"/>
	<polygon fill="#FFFFFF" points="69.328,100.905 40.704,100.905 40.704,47.193 51.368,47.193 51.368,90.24 69.328,90.24 
		69.328,100.905 	"/>
	<path fill="#FFFFFF" d="M100.409,88.049l-5.025-13.117l-5.142,13.123L100.409,88.049L100.409,88.049z M116.611,100.905h-11.427
		l-1.911-5.153L87.448,95.74l-1.988,5.165H74.03l21.331-55.359L116.611,100.905L116.611,100.905z"/>
	<polygon fill="#FFFFFF" points="135.517,100.905 124.852,100.905 124.852,90.085 135.517,90.085 135.517,100.905 	"/>
	<path fill="#FFFFFF" d="M185.417,93.857c-5.49,5.432-12.078,8.148-19.761,8.148c-7.738,0-14.337-2.734-19.8-8.195
		c-5.462-5.461-8.195-12.035-8.195-19.721c0-7.738,2.733-14.338,8.195-19.799c5.463-5.459,12.062-8.193,19.8-8.193
		c7.683,0,14.271,2.719,19.761,8.156l-7.514,7.526c-3.393-3.349-7.461-5.017-12.203-5.017c-4.802,0-8.897,1.689-12.287,5.068
		c-3.392,3.38-5.087,7.473-5.087,12.258c0,4.736,1.695,8.796,5.087,12.176c3.39,3.387,7.485,5.074,12.287,5.074
		c4.742,0,8.811-1.672,12.203-5.022L185.417,93.857L185.417,93.857z"/>
	<path fill="#FFFFFF" d="M232.389,74.126c0-4.766-1.697-8.823-5.083-12.179c-3.389-3.352-7.444-5.028-12.172-5.028
		c-4.777,0-8.86,1.677-12.247,5.028c-3.388,3.355-5.078,7.413-5.078,12.179c0,4.722,1.69,8.77,5.078,12.146
		c3.387,3.381,7.47,5.068,12.247,5.068c4.728,0,8.783-1.688,12.172-5.068C230.691,82.896,232.389,78.848,232.389,74.126
		L232.389,74.126z M243.051,74.09c0,7.686-2.733,14.26-8.193,19.721c-5.465,5.461-12.036,8.195-19.724,8.195
		c-7.733,0-14.337-2.734-19.801-8.195c-5.461-5.461-8.189-12.035-8.189-19.721c0-7.738,2.729-14.338,8.189-19.799
		c5.464-5.459,12.067-8.193,19.801-8.193c7.688,0,14.259,2.734,19.724,8.193C240.317,59.752,243.051,66.352,243.051,74.09
		L243.051,74.09z"/>
	<polygon fill="#FFFFFF" points="289.781,100.905 279.116,100.905 279.116,75.891 270.021,86.575 260.923,75.891 260.923,100.905 
		250.257,100.905 250.257,45.705 270.021,68.916 289.781,45.705 289.781,100.905 	"/>
	<path fill="#ACD8E9" d="M165.924,128.271c0.016,0.625,0.129,1.246,0.344,1.852c0.531,1.496,1.621,2.696,3.071,3.384
		c1.447,0.674,3.074,0.758,4.584,0.224l0.054-0.015l5.457-1.297c35.665-9.32,127.713-15.4,128.639-15.46
		c8.895-0.004,16.104-6.563,16.104-14.631V46.27c0-8.068-7.209-14.632-16.07-14.632c-0.389-0.024-36.127-2.314-71.41-6.253
		c-20.729-2.307-37.25-4.724-49.103-7.177c-15.827-3.281-20.773-6.066-22.193-8.18c-1.419,2.113-6.366,4.898-22.192,8.18
		c-11.851,2.453-28.375,4.87-49.104,7.177c-35.281,3.938-71.02,6.229-71.377,6.253c-8.895,0-16.104,6.563-16.104,14.632v56.058
		c0,8.067,7.209,14.627,16.073,14.627c0.957,0.063,93.009,6.144,128.682,15.47l5.498,1.306c1.509,0.534,3.136,0.45,4.585-0.224
		c1.448-0.688,2.539-1.888,3.07-3.384c0.216-0.605,0.331-1.227,0.344-1.852c0-0.098,0-0.188,0-0.294
		c-0.019-0.821-0.215-1.644-0.583-2.414c-0.676-1.423-1.864-2.5-3.342-3.04l0,0l-0.077-0.026c-1.503-0.517-3.151,0.27-3.681,1.772
		c-0.256,0.726-0.218,1.514,0.117,2.216c0.33,0.701,0.917,1.229,1.648,1.488c0.857,0.298,1.788,0.185,2.55-0.312l0.574,0.877
		c-1.041,0.677-2.306,0.833-3.473,0.417c-0.995-0.355-1.791-1.068-2.247-2.023c-0.453-0.949-0.507-2.02-0.155-3.013
		c0.724-2.053,2.983-3.126,5.034-2.401l0.023,0.005c1.759,0.627,3.17,1.9,3.976,3.588c0.055,0.126,0.111,0.245,0.161,0.367
		c0.05-0.122,0.104-0.241,0.159-0.367c0.806-1.688,2.219-2.965,3.979-3.588l0.022-0.005c2.048-0.725,4.31,0.349,5.034,2.401
		c0.354,0.993,0.3,2.063-0.156,3.013c-0.453,0.955-1.251,1.668-2.244,2.023c-1.17,0.416-2.434,0.26-3.472-0.417l0.569-0.877
		c0.762,0.496,1.695,0.609,2.553,0.312c0.729-0.26,1.314-0.787,1.648-1.488c0.334-0.702,0.377-1.49,0.115-2.216
		c-0.531-1.503-2.18-2.292-3.684-1.769l-0.061,0.022v-0.007c-1.486,0.542-2.676,1.619-3.357,3.047
		c-0.368,0.771-0.561,1.593-0.583,2.414C165.926,128.082,165.926,128.173,165.924,128.271L165.924,128.271z M171.903,135.128
		c-1.027,0-2.052-0.226-3.007-0.682c-1.606-0.752-2.837-2.043-3.497-3.664c-0.659,1.621-1.892,2.912-3.493,3.664
		c-1.692,0.801-3.591,0.897-5.35,0.28l-5.434-1.294c-35.585-9.298-127.542-15.371-128.464-15.427
		c-9.404,0-17.082-7.034-17.082-15.679V46.27c0-8.646,7.678-15.674,17.119-15.674c0.323-0.024,36.038-2.32,71.296-6.251
		c61.675-6.878,70.883-12.953,70.883-15.956c0,0-0.063-1.1,0.527-1.1c0.589,0,0.52,1.1,0.52,1.1c0,3.003,9.212,9.078,70.892,15.956
		c35.255,3.931,70.971,6.227,71.329,6.251c9.403,0,17.084,7.028,17.084,15.674v56.058c0,8.645-7.681,15.679-17.121,15.679
		c-0.889,0.056-92.84,6.129-128.417,15.427l-5.445,1.294C173.481,134.993,172.692,135.128,171.903,135.128L171.903,135.128z"/>
	<path fill="#ACD8E9" d="M170.147,127.975c0,0.478-0.382,0.865-0.857,0.865c-0.477,0-0.856-0.388-0.856-0.865
		c0-0.473,0.38-0.86,0.856-0.86C169.766,127.114,170.147,127.502,170.147,127.975L170.147,127.975z"/>
	<path fill="#ACD8E9" d="M162.355,127.975c0,0.478-0.385,0.865-0.857,0.865c-0.475,0-0.862-0.388-0.862-0.865
		c0-0.473,0.387-0.86,0.862-0.86C161.97,127.114,162.355,127.502,162.355,127.975L162.355,127.975z"/>
</g>
</svg>
