<?xml version="1.0" encoding="utf-8"?>
<!-- Generator: Adobe Illustrator 15.0.0, SVG Export Plug-In . SVG Version: 6.00 Build 0)  -->
<!DOCTYPE svg PUBLIC "-//W3C//DTD SVG 1.1//EN" "http://www.w3.org/Graphics/SVG/1.1/DTD/svg11.dtd">
<svg version="1.1" id="Layer_1" xmlns="http://www.w3.org/2000/svg" xmlns:xlink="http://www.w3.org/1999/xlink" x="0px" y="0px"
	 width="173.875px" height="17.68px" viewBox="0 0 173.875 17.68" enable-background="new 0 0 173.875 17.68" xml:space="preserve">
<g>
	<path d="M8.264,2.004h12.041l0.02,4.033h-0.576c-0.189-1.443-0.729-2.419-1.621-2.928c-0.501-0.281-1.25-0.434-2.246-0.46v10.536
		c0,0.736,0.128,1.226,0.386,1.466c0.257,0.241,0.792,0.361,1.606,0.361v0.508h-7.129v-0.508c0.781,0,1.3-0.121,1.558-0.366
		c0.257-0.244,0.386-0.731,0.386-1.461V2.649c-0.977,0.026-1.725,0.18-2.246,0.46C9.484,3.631,8.944,4.608,8.82,6.037H8.244
		L8.264,2.004z"/>
	<path d="M21.398,15.041c0.365-0.045,0.633-0.145,0.806-0.297c0.172-0.153,0.259-0.458,0.259-0.914V3.645
		c0-0.4-0.072-0.681-0.215-0.842c-0.143-0.161-0.426-0.268-0.85-0.32V2.004h3.867v5.625c0.41-0.495,0.841-0.877,1.294-1.147
		s0.962-0.405,1.528-0.405c0.768,0,1.403,0.223,1.904,0.669s0.752,1.206,0.752,2.28v4.804c0,0.449,0.077,0.744,0.229,0.885
		c0.153,0.14,0.409,0.248,0.767,0.326v0.479h-4.697v-0.479c0.358-0.071,0.602-0.169,0.732-0.293c0.13-0.123,0.195-0.403,0.195-0.84
		V9.065c0-0.456-0.045-0.797-0.137-1.025c-0.156-0.41-0.465-0.615-0.928-0.615c-0.345,0-0.702,0.16-1.069,0.479
		s-0.552,0.537-0.552,0.654v5.351c0,0.437,0.065,0.717,0.195,0.84c0.13,0.124,0.375,0.222,0.732,0.293v0.479h-4.814V15.041z"/>
	<path d="M33.866,7.351c0.818-0.85,1.804-1.274,2.958-1.274c0.658,0,1.277,0.172,1.857,0.518s1.027,0.824,1.34,1.436
		c0.234,0.462,0.397,1.061,0.489,1.796c0.045,0.346,0.068,0.609,0.068,0.791h-5.107c0.045,0.801,0.176,1.494,0.392,2.08
		c0.391,1.101,1.08,1.65,2.064,1.65c0.47,0,0.914-0.146,1.331-0.439c0.254-0.176,0.571-0.472,0.949-0.889l0.459,0.283
		c-0.619,1.016-1.336,1.723-2.151,2.119c-0.528,0.254-1.134,0.381-1.819,0.381c-0.984,0-1.907-0.387-2.767-1.162
		c-0.86-0.774-1.291-2.012-1.291-3.711C32.639,9.393,33.048,8.2,33.866,7.351z M38.117,9.875c-0.013-1.178-0.104-2.001-0.274-2.47
		s-0.51-0.703-1.02-0.703c-0.522,0-0.88,0.27-1.073,0.811c-0.192,0.541-0.302,1.328-0.328,2.363H38.117z"/>
	<path d="M46.398,15.519v-0.508c0.573-0.02,0.98-0.098,1.221-0.234c0.371-0.208,0.557-0.599,0.557-1.172V3.918
		c0-0.582-0.192-0.973-0.576-1.173c-0.221-0.123-0.622-0.201-1.201-0.233V2.004h11.523v4.033h-0.488
		c-0.254-1.289-0.685-2.171-1.294-2.646s-1.717-0.713-3.325-0.713c-0.612,0-1.001,0.063-1.167,0.19s-0.249,0.379-0.249,0.757v4.629
		c1.139,0.013,1.911-0.194,2.314-0.62s0.713-1.206,0.928-2.339h0.508v6.757h-0.508c-0.143-1.139-0.435-1.941-0.874-2.406
		c-0.439-0.466-1.229-0.699-2.368-0.699v4.843c0,0.424,0.109,0.712,0.327,0.865c0.218,0.152,0.666,0.229,1.343,0.229
		c1.276,0,2.318-0.247,3.125-0.742c0.807-0.494,1.523-1.422,2.148-2.783h0.557l-0.811,4.16H46.398z"/>
	<path d="M59.738,15.041c0.352-0.084,0.601-0.196,0.747-0.336c0.146-0.141,0.22-0.432,0.22-0.875V3.645
		c0-0.427-0.068-0.707-0.205-0.838s-0.391-0.24-0.762-0.324V2.004h3.789V13.83c0,0.443,0.072,0.732,0.215,0.869
		s0.397,0.251,0.762,0.342v0.479h-4.766V15.041z"/>
	<path d="M70.295,15.011c0.658-0.045,1.099-0.184,1.323-0.414c0.225-0.231,0.337-0.702,0.337-1.412V4.338
		c0-0.751-0.114-1.226-0.342-1.423c-0.228-0.198-0.667-0.332-1.318-0.403V2.004h6.436c1.706,0,3.003,0.277,3.892,0.83
		s1.333,1.504,1.333,2.852c0,0.658-0.174,1.274-0.522,1.851s-0.923,1.04-1.724,1.392c-0.605,0.248-1.211,0.397-1.816,0.449
		c-0.605,0.053-1.504,0.078-2.695,0.078v3.73c0,0.736,0.124,1.218,0.371,1.445c0.248,0.229,0.709,0.355,1.387,0.381v0.508h-6.66
		V15.011z M77.58,8.352c0.631-0.404,0.947-1.273,0.947-2.607c0-0.912-0.153-1.647-0.459-2.207s-0.892-0.84-1.758-0.84
		c-0.397,0-0.682,0.047-0.854,0.142s-0.259,0.278-0.259,0.552v5.371C76.389,8.742,77.183,8.606,77.58,8.352z"/>
	<path d="M83.996,11.51c0.866-0.529,2.223-1.061,4.072-1.596V8.459c0-0.592-0.125-1.03-0.376-1.313s-0.695-0.425-1.333-0.425
		c-0.358,0-0.653,0.067-0.884,0.2s-0.347,0.301-0.347,0.503c0,0.078,0.013,0.143,0.039,0.195s0.065,0.107,0.117,0.166l0.117,0.137
		c0.091,0.111,0.165,0.233,0.22,0.366s0.083,0.275,0.083,0.425c0,0.377-0.125,0.669-0.376,0.875s-0.542,0.307-0.874,0.307
		c-0.384,0-0.711-0.113-0.981-0.34c-0.27-0.228-0.405-0.556-0.405-0.984c0-0.766,0.361-1.374,1.084-1.821
		c0.723-0.448,1.611-0.672,2.666-0.672c1.133,0,2.08,0.218,2.842,0.654c0.756,0.443,1.133,1.256,1.133,2.441v4.843
		c0,0.144,0.037,0.266,0.112,0.367c0.075,0.101,0.157,0.15,0.249,0.15c0.078,0,0.148-0.014,0.21-0.043s0.157-0.109,0.288-0.24
		l0.303,0.42c-0.391,0.456-0.824,0.775-1.299,0.957c-0.299,0.117-0.615,0.176-0.947,0.176c-0.592,0-1.025-0.172-1.299-0.518
		c-0.156-0.195-0.27-0.486-0.342-0.871c-0.553,0.555-1.178,0.945-1.875,1.174c-0.423,0.144-0.84,0.215-1.25,0.215
		c-0.547,0-1.058-0.174-1.533-0.523c-0.475-0.348-0.713-0.891-0.713-1.628C82.697,12.752,83.13,12.037,83.996,11.51z M87.482,14.084
		c0.156-0.117,0.342-0.301,0.557-0.549v-2.928c-0.533,0.131-1.002,0.336-1.406,0.617c-0.684,0.477-1.025,1.084-1.025,1.821
		c0,0.438,0.099,0.769,0.298,0.993c0.199,0.227,0.421,0.338,0.669,0.338C86.9,14.377,87.203,14.279,87.482,14.084z"/>
	<path d="M92.697,12.492h0.557c0.195,0.957,0.561,1.633,1.094,2.027c0.533,0.394,1.08,0.59,1.641,0.59
		c0.514,0,0.893-0.115,1.133-0.346c0.24-0.231,0.361-0.536,0.361-0.914c0-0.357-0.131-0.664-0.391-0.918
		c-0.143-0.137-0.375-0.283-0.693-0.439l-1.484-0.723c-0.781-0.384-1.342-0.801-1.68-1.25c-0.346-0.449-0.518-0.979-0.518-1.591
		c0-0.775,0.27-1.444,0.811-2.007s1.295-0.845,2.266-0.845c0.424,0,0.873,0.07,1.348,0.21s0.771,0.21,0.889,0.21
		c0.162,0,0.278-0.034,0.347-0.103s0.126-0.165,0.171-0.288h0.439v2.891h-0.508c-0.189-0.677-0.498-1.221-0.928-1.631
		S96.619,6.75,96.047,6.75c-0.443,0-0.773,0.124-0.991,0.371s-0.327,0.514-0.327,0.801c0,0.234,0.098,0.469,0.293,0.703
		c0.189,0.241,0.547,0.488,1.074,0.742l1.094,0.527c0.678,0.326,1.172,0.642,1.484,0.947c0.521,0.521,0.781,1.162,0.781,1.924
		c0,0.742-0.269,1.435-0.806,2.076c-0.537,0.641-1.343,0.961-2.417,0.961c-0.268,0-0.535-0.027-0.806-0.082
		c-0.271-0.056-0.604-0.152-1.001-0.289l-0.342-0.117c-0.123-0.045-0.2-0.071-0.229-0.078c-0.029-0.006-0.067-0.01-0.112-0.01
		c-0.111,0-0.207,0.045-0.288,0.133s-0.175,0.235-0.278,0.443h-0.479V12.492z"/>
	<path d="M101.696,7.453c0.856-0.931,1.933-1.396,3.228-1.396c1.321,0,2.404,0.475,3.247,1.426s1.265,2.103,1.265,3.457
		c0,1.335-0.417,2.482-1.25,3.443c-0.833,0.96-1.921,1.439-3.262,1.439c-1.303,0-2.379-0.467-3.232-1.4
		c-0.854-0.935-1.279-2.096-1.279-3.482C100.412,9.547,100.84,8.385,101.696,7.453z M103.566,13.879
		c0.229,0.866,0.681,1.299,1.357,1.299c0.645,0,1.067-0.332,1.27-0.996s0.303-1.744,0.303-3.242c0-1.49-0.105-2.569-0.317-3.237
		s-0.627-1.001-1.245-1.001c-0.677,0-1.129,0.433-1.357,1.299c-0.15,0.58-0.225,1.559-0.225,2.939
		C103.352,12.34,103.424,13.319,103.566,13.879z"/>
	<path d="M115.148,2.004h12.041l0.02,4.033h-0.576c-0.188-1.443-0.729-2.419-1.621-2.928c-0.501-0.281-1.25-0.434-2.246-0.46v10.536
		c0,0.736,0.129,1.226,0.386,1.466c0.257,0.241,0.793,0.361,1.606,0.361v0.508h-7.129v-0.508c0.781,0,1.301-0.121,1.558-0.366
		c0.257-0.244,0.386-0.731,0.386-1.461V2.649c-0.977,0.026-1.726,0.18-2.246,0.46c-0.957,0.522-1.497,1.499-1.621,2.928h-0.576
		L115.148,2.004z"/>
	<path d="M127.932,15.041c0.352-0.059,0.593-0.146,0.723-0.264c0.195-0.176,0.293-0.491,0.293-0.947V7.951
		c0-0.407-0.068-0.685-0.205-0.832c-0.137-0.148-0.407-0.258-0.811-0.33V6.311h3.838v7.597c0,0.437,0.065,0.717,0.195,0.84
		c0.13,0.124,0.374,0.222,0.732,0.293v0.479h-4.766V15.041z M129.265,2.156c0.303-0.303,0.669-0.454,1.099-0.454
		c0.423,0,0.786,0.151,1.089,0.454s0.454,0.669,0.454,1.099s-0.151,0.796-0.454,1.099s-0.666,0.454-1.089,0.454
		c-0.43,0-0.796-0.151-1.099-0.454s-0.454-0.669-0.454-1.099S128.962,2.458,129.265,2.156z"/>
	<path d="M133.488,15.041c0.364-0.045,0.615-0.123,0.752-0.234c0.222-0.176,0.332-0.501,0.332-0.977V7.951
		c0-0.42-0.075-0.706-0.225-0.857c-0.149-0.151-0.437-0.252-0.859-0.305V6.311h3.789v1.436c0.332-0.436,0.654-0.775,0.967-1.016
		c0.579-0.436,1.224-0.654,1.934-0.654c0.801,0,1.423,0.189,1.865,0.566c0.247,0.215,0.481,0.566,0.703,1.055h0.137
		c0.378-0.462,0.739-0.811,1.084-1.045c0.547-0.384,1.143-0.576,1.787-0.576c0.703,0,1.323,0.225,1.86,0.674
		s0.806,1.159,0.806,2.129v5.029c0,0.463,0.075,0.758,0.225,0.885s0.413,0.209,0.791,0.248v0.479h-4.746v-0.479
		c0.364-0.052,0.618-0.141,0.762-0.268s0.215-0.416,0.215-0.865V9.065c0-0.521-0.076-0.924-0.229-1.211s-0.444-0.43-0.874-0.43
		c-0.345,0-0.708,0.158-1.089,0.474s-0.571,0.536-0.571,0.659v5.351c0,0.437,0.065,0.717,0.195,0.84
		c0.13,0.124,0.374,0.222,0.732,0.293v0.479h-4.678v-0.479c0.352-0.045,0.603-0.131,0.752-0.258s0.225-0.419,0.225-0.875V9.065
		c0-0.508-0.071-0.908-0.215-1.201s-0.439-0.439-0.889-0.439c-0.41,0-0.791,0.167-1.143,0.503s-0.527,0.545-0.527,0.63v5.351
		c0,0.437,0.062,0.717,0.186,0.84c0.124,0.124,0.368,0.222,0.732,0.293v0.479h-4.785V15.041z"/>
	<path d="M151.493,7.351c0.817-0.85,1.804-1.274,2.957-1.274c0.658,0,1.278,0.172,1.858,0.518s1.026,0.824,1.339,1.436
		c0.235,0.462,0.397,1.061,0.489,1.796c0.046,0.346,0.068,0.609,0.068,0.791h-5.107c0.046,0.801,0.176,1.494,0.392,2.08
		c0.392,1.101,1.079,1.65,2.064,1.65c0.47,0,0.913-0.146,1.331-0.439c0.254-0.176,0.57-0.472,0.949-0.889l0.459,0.283
		c-0.619,1.016-1.336,1.723-2.151,2.119c-0.527,0.254-1.134,0.381-1.818,0.381c-0.984,0-1.906-0.387-2.767-1.162
		c-0.861-0.774-1.291-2.012-1.291-3.711C150.266,9.393,150.675,8.2,151.493,7.351z M155.744,9.875
		c-0.013-1.178-0.104-2.001-0.274-2.47s-0.51-0.703-1.02-0.703c-0.522,0-0.88,0.27-1.073,0.811
		c-0.192,0.541-0.302,1.328-0.328,2.363H155.744z"/>
	<path d="M159.211,12.492h0.557c0.195,0.957,0.56,1.633,1.094,2.027c0.534,0.394,1.081,0.59,1.641,0.59
		c0.515,0,0.892-0.115,1.133-0.346c0.241-0.231,0.361-0.536,0.361-0.914c0-0.357-0.13-0.664-0.391-0.918
		c-0.144-0.137-0.374-0.283-0.693-0.439l-1.484-0.723c-0.781-0.384-1.341-0.801-1.68-1.25c-0.345-0.449-0.518-0.979-0.518-1.591
		c0-0.775,0.271-1.444,0.811-2.007s1.296-0.845,2.266-0.845c0.423,0,0.872,0.07,1.348,0.21s0.771,0.21,0.889,0.21
		c0.163,0,0.278-0.034,0.347-0.103s0.125-0.165,0.171-0.288h0.439v2.891h-0.508c-0.188-0.677-0.498-1.221-0.928-1.631
		s-0.931-0.615-1.504-0.615c-0.442,0-0.773,0.124-0.991,0.371s-0.327,0.514-0.327,0.801c0,0.234,0.098,0.469,0.293,0.703
		c0.188,0.241,0.547,0.488,1.074,0.742l1.094,0.527c0.677,0.326,1.172,0.642,1.484,0.947c0.521,0.521,0.781,1.162,0.781,1.924
		c0,0.742-0.269,1.435-0.806,2.076c-0.537,0.641-1.343,0.961-2.417,0.961c-0.267,0-0.535-0.027-0.806-0.082
		c-0.271-0.056-0.604-0.152-1.001-0.289l-0.342-0.117c-0.124-0.045-0.2-0.071-0.229-0.078c-0.029-0.006-0.066-0.01-0.112-0.01
		c-0.11,0-0.207,0.045-0.288,0.133s-0.174,0.235-0.278,0.443h-0.479V12.492z"/>
</g>
</svg>
