<?xml version="1.0" encoding="utf-8"?>
<!-- Generator: Adobe Illustrator 15.0.0, SVG Export Plug-In . SVG Version: 6.00 Build 0)  -->
<!DOCTYPE svg PUBLIC "-//W3C//DTD SVG 1.1//EN" "http://www.w3.org/Graphics/SVG/1.1/DTD/svg11.dtd">
<svg version="1.1" id="Layer_1" xmlns="http://www.w3.org/2000/svg" xmlns:xlink="http://www.w3.org/1999/xlink" x="0px" y="0px"
	 width="704.136px" height="71.593px" viewBox="0 0 704.136 71.593" enable-background="new 0 0 704.136 71.593"
	 xml:space="preserve">
<path d="M494.296,69.446c-0.773-0.092-4.961-0.533-8.648-6.533s-6.875-13.875-13-16.438c0,0,13.492-0.817,13.492-13.661
	c0-12.801-16.246-12.895-18.475-12.895c-2.23,0-5.172,0.074-9.303,0.074c-3.406,0-15.09-0.129-15.09-0.129v1.109l1.859,0.263
	c2.93,0.498,4.336,1.271,4.748,4.162c0.381,2.668,0.461,6.232,0.461,11.099v17.04c0,4.164-0.021,6.441-0.176,8.912
	c-0.143,2.305-0.131,5.994-4.277,6.691l-2.615,0.376v1.111c0,0,9.064-0.148,12.469-0.148s12.955,0.148,12.955,0.148l0.008-1.108
	l-2.711-0.262c-2.93-0.498-4.336-1.271-4.748-4.162c-0.381-2.668-0.461-6.141-0.461-11.008V47.05c0,0,2.963,0.981,5.922,4.793
	c3.6,4.638,6.699,12.612,11.74,18.786c0,0,4.797-0.111,8.643-0.111c3.844,0,8.738,0.111,8.738,0.111v-1.201
	C495.828,69.428,494.716,69.496,494.296,69.446z M464.369,45.783c-1.584,0-3.4-0.24-3.4-0.24s-0.123-3.646-0.123-7.553
	c0-3.905,0-8.849,0-8.849l0.244-6.594c0,0,2.275-0.621,4.939-0.621c3.619,0,9.668,2.889,9.668,11.479
	C475.697,46.212,465.953,45.783,464.369,45.783z"/>
<path d="M536.906,41.363c3.164-0.061,26.568,0.955,26.568-20.041c0-17.272-14.035-19.465-23.166-19.242
	c-9.791,0.238-16.971,0.059-28.809-0.057v1l1.639,0.216c2.307,0.461,7.451,0.213,7.629,9.26s0.123,12.15,0.123,12.15v21.123
	c0,4.495-0.199,12.123-0.199,12.123c-0.238,6.801-0.439,10.281-7.359,11.373l-1.869,0.222v1.133c0,0,8.746-0.221,15.537-0.221
	s17.221,0.221,17.221,0.221V69.49l-3.753-0.528c-6.918-1.091-7.087-4.266-7.323-11.066c0,0-0.201-7.628-0.201-12.123v-4.47
	C532.943,41.303,534.519,41.408,536.906,41.363z M532.943,24.649c0-5.11,0.08-19.644,0.08-19.644
	c1.432-0.418,3.465-0.883,6.104-0.883c2.641,0,11.451,0.703,11.451,17.24s-9.254,17.254-11.643,17.492
	c-2.389,0.239-5.992,0.418-5.992,0.418V24.649z"/>
<path d="M293.773,56.735c0,0-1.125,3.833-2.006,7.446c-0.881,3.611-1.498,6.538-1.498,6.538s-17.718-0.239-24.866-0.239
	c-5.535,0-17.11,0.148-17.11,0.148v-1.111l2.531-0.402c4.147-0.697,4.218-4.36,4.362-6.665c0.153-2.471,0.176-4.748,0.176-8.912
	v-17.04c0-4.866-0.08-8.431-0.461-11.099c-0.414-2.891-1.818-3.664-4.75-4.162l-1.858-0.263v-1.109c0,0,10.683,0.259,17.604,0.259
	c6.923,0,20.886-0.267,20.886-0.267s1.326,3.939,2.295,6.512c0.967,2.572,2.104,5.293,2.104,5.293l-1.42,0.535
	c0,0-2.937-4.319-5.155-6.535c-2.437-2.434-5.284-3.439-10.819-3.439c-3.775,0-7.698,0.811-7.698,0.811
	c-0.148,3.254-0.284,10.141-0.284,14.305v5.879c8.392-0.209,10.271-0.375,12.391-2.529c2.186-2.223,3.038-7.197,3.038-7.197
	l1.326-0.023c0,0-0.339,6.461-0.339,11.18s0.339,11.443,0.339,11.443l-1.326-0.023c0,0-0.78-4.711-3.284-7.404
	c-2.691-2.895-5.142-2.748-12.145-2.863v5.959c0,0,0.079,7.397,0.302,11.019c0.357,5.854,4.692,5.452,9.51,5.452
	s7.596-0.354,11.106-3.68c3.51-3.325,5.689-8.276,5.689-8.276L293.773,56.735z"/>
<path d="M180.213,3.156l2.113,0.298c6.919,1.091,7.007,4.696,7.244,11.497c0,0,0.133,5.203,0.133,9.698v21.123
	c0,4.495-0.201,12.123-0.201,12.123c-0.236,6.801-0.219,10.274-7.139,11.364l-2.126,0.23v1.133c2,0,11.659-0.199,15.358-0.199
	c4.7,0,5.876,0.299,15.676,0.299c22.601,0,36.425-11.225,36.425-33.826c0-22.299-14.671-34.873-40.425-34.873
	c-4.6,0-9.676,0.199-13.676,0.199c-3.8,0-11.383-0.199-13.383-0.199V3.156z M214.083,68.263c-9.9,0-12.005-2.522-12.182-12.5
	c0,0-0.146-5.495-0.146-9.99V24.649c0-5.11,0.081-19.812,0.081-19.812c1.4-0.299,3.446-0.508,5.846-0.508
	c17.162,0,26.049,11.492,26.049,33.094C233.731,58.723,225.69,68.263,214.083,68.263z"/>
<path d="M612.953,35.008c-1.16-3.168-2.83-5.966-5.008-8.391c-2.178-2.424-4.83-4.356-7.959-5.798
	c-3.129-1.438-6.662-2.16-10.604-2.16c-3.617,0-7.059,0.612-10.326,1.835c-3.268,1.226-6.119,2.979-8.553,5.259
	c-2.434,2.281-4.369,5.066-5.805,8.354c-1.438,3.289-2.154,6.998-2.154,11.127c0,3.891,0.682,7.455,2.049,10.694
	c1.367,3.242,3.232,6.026,5.596,8.355c2.363,2.328,5.123,4.129,8.275,5.399c3.152,1.272,6.488,1.909,10.012,1.909
	c3.57,0,6.939-0.646,10.117-1.944c3.176-1.296,5.957-3.143,8.346-5.545c2.385-2.401,4.273-5.232,5.664-8.497
	c1.393-3.266,2.088-6.817,2.088-10.661C614.691,41.489,614.111,38.177,612.953,35.008z M588.734,69.067
	c-9.421,0-14.35-11.217-14.35-24.074s6.012-23.757,14.547-23.757c8.538,0,13.906,10.164,13.906,23.748
	C602.837,57.197,597.899,69.067,588.734,69.067z"/>
<path d="M692.636,70.623c0,0-10.484-0.148-13.889-0.148c-3.406,0-14.322,0.148-14.322,0.148v-1.111l3.97-0.55
	c4.629-0.793,4.632-4.532,4.776-6.837c0.154-2.471,0.176-4.429,0.176-8.593c0-2.201,0-15.188,0-17.04
	c0-4.866,0.049-9.504-0.135-14.074l-7.699,0.38c-7.682,0.529-10.334,11.207-10.334,11.207l-1.48-0.289c0,0,0.615-3.354,1.199-7.084
	c0.582-3.729,1.166-8.198,1.166-8.198s3.621,1.678,12.188,1.678c10.066,0,12.164,0,21.172,0s11.922-1.767,11.922-1.767
	s0.447,2.995,1.01,6.1s1.781,8.803,1.781,8.803l-1.264,0.283c0,0-1.898-4.765-4.578-8.09c-2.682-3.325-5.51-2.627-8.488-2.775
	c-2.977-0.148-5.885-0.154-5.885-0.154c-0.092,3.462-0.131,10.369-0.131,14.533c0,2.201,0,15.188,0,17.039
	c0,4.867,0.07,7.62,0.355,10.171c0.322,2.901,1.819,4.223,5.221,4.811l3.279,0.45L692.636,70.623z"/>
<path d="M442.671,56.735c0,0-1.125,3.833-2.006,7.446c-0.881,3.611-1.498,6.538-1.498,6.538S421.451,70.48,414.3,70.48
	c-5.533,0-17.109,0.148-17.109,0.148v-1.111l2.533-0.402c4.146-0.697,4.217-4.36,4.359-6.665c0.154-2.471,0.176-4.748,0.176-8.912
	v-17.04c0-2.099-0.016-3.942-0.064-5.59c-0.07-4.869-0.443-6.958-1.303-8.102c-0.795-1.06-2.098-1.553-3.25-1.653
	c-0.24-0.021-0.477-0.031-0.697-0.019c-2.248,0.124-3.973,2.402-5.34,4.979c-0.482,0.854-0.904,1.728-1.281,2.537
	c0,0-12.939,30.129-14.557,33.531c-1.615,3.402-4.914,9.342-4.914,9.342h-1.551c0,0-3.734-8.789-5.777-13.553
	c-2.041-4.764-8.252-19.558-10.502-24.683c-0.751-1.71-1.408-3.192-2.023-4.483c-0.583-1.479-3.217-7.234-6.75-7.387
	c-1.941,0-3.084,1.05-3.755,2.582c-0.823,1.602-0.947,4.109-0.947,8.214l-0.37,38.404l-1.801,0.774
	c-5.802-6.936-13.47-16.133-18.544-22.121c-7.72-9.11-16.585-19.229-16.585-19.229l0.184,28.007
	c0.147,8.732,1.627,10.359,6.438,11.248l1.406,0.221v1.111c-1.406,0-6.224-0.148-8.961-0.148c-2.738,0-7.898,0.148-9.526,0.148
	v-1.111l0.888-0.146c4.514-0.814,6.163-2.518,6.311-11.396l0.1-27.882c0.002-2.727-0.469-4.43-1.839-5.699
	c-1.813-1.661-3.704-2.567-5.66-3.101l-1.036-0.223v-1.205c1.628,0.074,5.692,0.148,8.356,0.148c2.294,0,7.922-0.074,9.993-0.223
	l27.384,32.888l-0.021-20.233c-0.148-8.732-1.629-10.361-6.438-11.248l-1.406-0.223v-1.109c0,0,10.489,0.16,18.135,0.189
	c0.772,0.004,1.523,0.006,2.223,0.006c8.998,0,20.094-0.195,20.094-0.195v1.109l-1.861,0.262c-0.906,0.182-4.43,0.344-4.43,3.438
	s5.15,15.489,6.4,18.572c1.25,3.084,5.785,14.189,5.785,14.189l9.359-22.318c0,0,2.746-6.229,2.746-9.767s-3.568-3.991-3.568-3.991
	l-2.49-0.453l0.006-1.054c0,0,7.057,0.162,14.416,0.286l0,0c4.5,0.075,9.111,0.136,12.293,0.136c7.93,0,26.154-0.417,26.154-0.417
	s1.326,3.939,2.295,6.512c0.967,2.572,2.104,5.293,2.104,5.293l-1.42,0.535c0,0-2.936-4.319-5.154-6.535
	c-2.438-2.434-5.285-3.439-10.82-3.439c-3.775,0-7.699,0.811-7.699,0.811c-0.148,3.254-0.283,10.141-0.283,14.305v5.879
	c8.393-0.209,10.271-0.375,12.391-2.529c2.186-2.223,3.039-7.197,3.039-7.197l1.326-0.023c0,0-0.34,6.461-0.34,11.18
	s0.34,11.443,0.34,11.443l-1.326-0.023c0,0-0.781-4.711-3.285-7.404c-2.691-2.895-5.141-2.748-12.145-2.863v5.959
	c0,0,0.08,7.397,0.301,11.019c0.359,5.854,4.693,5.452,9.512,5.452c4.816,0,7.596-0.354,11.105-3.68s5.689-8.276,5.689-8.276
	L442.671,56.735z"/>
<path d="M52.782,70.623c0,0-10.429-0.221-17.22-0.221s-17.507,0.221-17.507,0.221V69.49l3.7-0.52
	c7.099-1.298,7.26-4.274,7.497-11.075c0,0,0.201-7.628,0.201-12.123c0-10.139,0-16.397,0-21.123c0-5.11-0.077-18.813-0.077-18.813
	s-1.821,0.045-5.994,0.045S13.286,6.104,9.744,9.739C6.708,12.855,2.7,21.095,1.297,23.835L0,23.444c0,0,1.354-5.54,2.7-12.27
	S4.713,0,4.713,0s6.861,2.843,17.886,2.843c6.724,0,14.773,0,24.329,0C56.689,2.843,65.954,0,65.954,0s0.364,3.37,1.357,9.27
	s1.659,8.793,1.659,8.793h-1.703c-2.043-4.401-4.778-7.907-8.604-10.127S46.901,5.86,45.412,5.86c-1.548,0-3.831-0.024-3.831-0.024
	s-0.077,13.703-0.077,18.813c0,4.726,0,10.984,0,21.123c0,4.495,0.201,12.123,0.201,12.123c0.237,6.801,0.457,9.984,7.376,11.075
	l3.7,0.52V70.623z"/>
<path d="M88.189,20.975l3.433,0.539c4.147,0.697,4.16,4.319,4.303,6.624c0.154,2.471,0.176,4.748,0.176,8.912v6.488H74.216V37.05
	c0-4.164,0.022-6.441,0.176-8.912c0.144-2.305,0.14-5.773,4.303-6.624l3.433-0.539v-1.111c0,0-9.7,0.182-13.105,0.182
	s-12.318-0.18-12.318-0.18v1.109l1.859,0.263c2.931,0.499,4.336,1.271,4.749,4.163c0.381,2.668,0.461,6.232,0.461,11.098v17.04
	c0,4.164-0.022,6.441-0.176,8.912c-0.144,2.305-0.156,6.038-4.303,6.735l-2.59,0.332v1.111c0,0,9.064-0.148,12.469-0.148
	s12.955,0.148,12.955,0.148l0.009-1.108l-2.71-0.262c-2.931-0.498-4.336-1.271-4.749-4.162c-0.381-2.668-0.461-6.141-0.461-11.008
	v-7.676h21.885v7.676c0,4.867-0.08,8.34-0.461,11.008c-0.413,2.891-1.818,3.664-4.749,4.162l-2.71,0.262l0.009,1.108
	c0,0,9.55-0.148,12.955-0.148s12.469,0.148,12.469,0.148v-1.137l-2.299-0.276c-4.32-0.761-4.451-4.461-4.594-6.766
	c-0.154-2.471-0.176-4.748-0.176-8.912v-17.04c0-4.866,0.08-8.43,0.461-11.098c0.413-2.892,1.818-3.664,4.749-4.163l1.859-0.263
	v-1.109c0,0-8.914,0.18-12.318,0.18s-13.105-0.182-13.105-0.182V20.975z"/>
<path d="M161.433,56.735c0,0-1.125,3.833-2.006,7.446c-0.881,3.611-1.498,6.537-1.498,6.537
	c-14.757-0.063-14.757-0.238-24.867-0.238c-5.534,0-17.11,0.148-17.11,0.148v-1.106l2.359-0.367c4.533-0.883,4.39-4.4,4.534-6.705
	c0.154-2.471,0.176-4.748,0.176-8.912v-17.04c0-4.866-0.08-8.431-0.461-11.099c-0.413-2.891-1.818-3.664-4.749-4.162l-1.859-0.263
	v-1.109c0,0,10.682,0.259,17.605,0.259s20.885-0.266,20.885-0.266s1.327,3.938,2.295,6.511s2.104,5.293,2.104,5.293l-1.252,0.53
	c0,0-3.104-4.313-5.322-6.529c-2.437-2.433-5.284-3.439-10.82-3.439c-3.774,0-7.698,0.81-7.698,0.81
	c-0.148,3.254-0.284,10.141-0.284,14.305v5.879c8.392-0.209,10.272-0.375,12.391-2.529c2.185-2.223,3.038-7.197,3.038-7.197
	l1.326-0.021c0,0-0.339,6.458-0.339,11.177s0.339,11.443,0.339,11.443l-1.326-0.023c0,0-0.78-4.711-3.285-7.404
	c-2.691-2.895-5.141-2.748-12.144-2.863v5.959c0,0,0.08,7.397,0.301,11.019c0.358,5.854,4.692,5.452,9.51,5.452
	s7.596-0.354,11.106-3.68s5.69-8.276,5.69-8.276L161.433,56.735z"/>
<path d="M634.976,68.984c-12.343,0-15.036-13.616-15.036-13.616h-1.371c0,0,0.312,11.014,0.312,15.205h1.126l2.13-2.351
	c0,0,6.347,3.108,12.307,3.108c11.017,0,19.711-7.011,19.711-16.401c0-7.794-4.096-10.583-15.627-15.835
	c-6.971-3.287-10.357-6.479-10.357-10.551c0-3.595,1.59-7.583,8.253-7.583c9.625,0,12.901,12.608,12.901,12.608h1.42
	c0,0-0.002-3.108,0.066-6.464c0.057-2.765,0.38-7.492,0.38-7.492l-1.262-0.165l-2.151,2.722c0,0-5.085-3.226-11.049-3.226
	c-11.204,0-18.369,6.688-18.369,14.475c0,6.658,3.363,10.799,14.715,16.328c8.216,4.002,10.896,6.208,10.896,11.227
	C643.97,65.552,640.617,68.984,634.976,68.984z"/>
</svg>
