<?xml version="1.0" encoding="utf-8"?>
<!-- Generator: Adobe Illustrator 16.0.4, SVG Export Plug-In . SVG Version: 6.00 Build 0)  -->
<!DOCTYPE svg PUBLIC "-//W3C//DTD SVG 1.1//EN" "http://www.w3.org/Graphics/SVG/1.1/DTD/svg11.dtd">
<svg version="1.1" id="Layer_1" xmlns="http://www.w3.org/2000/svg" xmlns:xlink="http://www.w3.org/1999/xlink" x="0px" y="0px"
	 width="173.875px" height="17.679px" viewBox="0 0 173.875 17.679" enable-background="new 0 0 173.875 17.679"
	 xml:space="preserve">
<path fill="#FFFFFF" d="M122.059,17.149c-0.191-0.023-1.225-0.132-2.136-1.614c-0.911-1.481-1.698-3.426-3.21-4.059
	c0,0,3.332-0.202,3.332-3.374c0-3.161-4.012-3.184-4.562-3.184c-0.551,0-1.277,0.018-2.297,0.018c-0.841,0-3.726-0.032-3.726-0.032
	v0.274l0.459,0.065c0.723,0.123,1.07,0.314,1.172,1.028c0.094,0.659,0.114,1.539,0.114,2.741v4.208c0,1.028-0.005,1.591-0.043,2.201
	c-0.035,0.569-0.032,1.48-1.056,1.652l-0.646,0.093v0.274c0,0,2.238-0.036,3.079-0.036c0.84,0,3.199,0.036,3.199,0.036l0.002-0.273
	l-0.67-0.065c-0.723-0.123-1.07-0.314-1.172-1.027c-0.094-0.659-0.114-1.517-0.114-2.718v-1.738c0,0,0.732,0.242,1.462,1.184
	c0.889,1.146,1.654,3.114,2.899,4.639c0,0,1.185-0.027,2.134-0.027c0.949,0,2.158,0.027,2.158,0.027v-0.296
	C122.437,17.144,122.162,17.161,122.059,17.149z M114.668,11.305c-0.391,0-0.84-0.059-0.84-0.059s-0.03-0.9-0.03-1.865
	c0-0.964,0-2.185,0-2.185l0.06-1.628c0,0,0.562-0.153,1.22-0.153c0.894,0,2.388,0.713,2.388,2.834
	C117.466,11.411,115.06,11.305,114.668,11.305z"/>
<path fill="#FFFFFF" d="M132.58,10.214c0.781-0.015,6.561,0.236,6.561-4.949c0-4.265-3.466-4.806-5.72-4.751
	c-2.418,0.059-4.19,0.014-7.114-0.014v0.247l0.405,0.053c0.569,0.114,1.84,0.053,1.884,2.287s0.03,3,0.03,3v5.216
	c0,1.11-0.049,2.993-0.049,2.993c-0.059,1.68-0.108,2.539-1.817,2.809l-0.461,0.054v0.28c0,0,2.16-0.055,3.837-0.055
	c1.677,0,4.252,0.055,4.252,0.055v-0.28l-0.926-0.13c-1.709-0.27-1.75-1.054-1.809-2.733c0,0-0.049-1.883-0.049-2.993v-1.104
	C131.602,10.199,131.991,10.225,132.58,10.214z M131.602,6.087c0-1.262,0.02-4.851,0.02-4.851c0.354-0.104,0.855-0.218,1.507-0.218
	c0.652,0,2.828,0.173,2.828,4.257c0,4.083-2.285,4.261-2.875,4.319c-0.59,0.059-1.48,0.104-1.48,0.104V6.087z"/>
<path fill="#FFFFFF" d="M72.542,14.01c0,0-0.278,0.947-0.496,1.839c-0.217,0.892-0.37,1.615-0.37,1.615s-4.375-0.059-6.14-0.059
	c-1.367,0-4.225,0.036-4.225,0.036v-0.274l0.625-0.099c1.024-0.172,1.042-1.077,1.077-1.646c0.038-0.61,0.043-1.173,0.043-2.201
	V9.013c0-1.202-0.02-2.082-0.114-2.741c-0.103-0.714-0.449-0.905-1.173-1.028l-0.459-0.065V4.905c0,0,2.638,0.064,4.347,0.064
	s5.157-0.066,5.157-0.066s0.327,0.973,0.567,1.608c0.238,0.635,0.519,1.307,0.519,1.307l-0.351,0.132c0,0-0.725-1.066-1.273-1.614
	c-0.602-0.601-1.305-0.85-2.671-0.85c-0.933,0-1.901,0.2-1.901,0.2c-0.037,0.804-0.07,2.504-0.07,3.533v1.452
	c2.072-0.052,2.536-0.093,3.06-0.625c0.54-0.549,0.75-1.777,0.75-1.777l0.328-0.006c0,0-0.083,1.595-0.083,2.76
	c0,1.166,0.083,2.826,0.083,2.826l-0.328-0.006c0,0-0.192-1.163-0.811-1.828c-0.665-0.715-1.27-0.679-2.999-0.708v1.472
	c0,0,0.02,1.827,0.074,2.721c0.088,1.445,1.159,1.346,2.348,1.346c1.19,0,1.876-0.087,2.743-0.908
	c0.867-0.821,1.405-2.044,1.405-2.044L72.542,14.01z"/>
<path fill="#FFFFFF" d="M44.5,0.779l0.522,0.074c1.708,0.27,1.73,1.16,1.789,2.839c0,0,0.033,1.285,0.033,2.395v5.216
	c0,1.11-0.049,2.993-0.049,2.993c-0.059,1.68-0.054,2.538-1.763,2.807l-0.525,0.057v0.28c0.494,0,2.879-0.049,3.792-0.049
	c1.161,0,1.451,0.074,3.871,0.074c5.581,0,8.995-2.771,8.995-8.353c0-5.506-3.623-8.611-9.982-8.611
	c-1.136,0-2.39,0.049-3.377,0.049c-0.938,0-2.811-0.049-3.305-0.049V0.779z M52.864,16.856c-2.445,0-2.964-0.623-3.008-3.087
	c0,0-0.036-1.357-0.036-2.467V6.087c0-1.262,0.02-4.893,0.02-4.893c0.346-0.074,0.851-0.125,1.443-0.125
	c4.238,0,6.432,2.838,6.432,8.172C57.716,14.5,55.73,16.856,52.864,16.856z"/>
<path fill="#FFFFFF" d="M151.359,8.645c-0.287-0.782-0.699-1.473-1.237-2.072c-0.538-0.599-1.192-1.076-1.965-1.432
	c-0.772-0.355-1.645-0.534-2.618-0.534c-0.893,0-1.743,0.151-2.55,0.454c-0.807,0.302-1.511,0.735-2.112,1.298
	c-0.601,0.563-1.079,1.251-1.433,2.062c-0.355,0.812-0.532,1.729-0.532,2.748c0,0.96,0.168,1.841,0.506,2.641
	c0.337,0.801,0.798,1.488,1.381,2.063c0.583,0.575,1.265,1.02,2.043,1.333c0.778,0.314,1.602,0.472,2.472,0.472
	c0.882,0,1.714-0.16,2.499-0.48c0.784-0.32,1.471-0.776,2.061-1.37c0.589-0.593,1.056-1.292,1.399-2.098
	c0.344-0.806,0.516-1.683,0.516-2.632C151.788,10.245,151.645,9.427,151.359,8.645z M145.378,17.055
	c-2.327,0-3.543-2.77-3.543-5.945s1.484-5.866,3.592-5.866c2.109,0,3.434,2.51,3.434,5.864
	C148.861,14.124,147.642,17.055,145.378,17.055z"/>
<path fill="#FFFFFF" d="M171.036,17.439c0,0-2.589-0.037-3.43-0.037s-3.536,0.037-3.536,0.037v-0.275l0.98-0.135
	c1.143-0.196,1.144-1.119,1.18-1.688c0.038-0.61,0.043-1.094,0.043-2.122c0-0.543,0-3.75,0-4.208c0-1.202,0.012-2.347-0.033-3.476
	l-1.901,0.094c-1.897,0.131-2.552,2.768-2.552,2.768l-0.365-0.071c0,0,0.152-0.829,0.296-1.75s0.288-2.024,0.288-2.024
	s0.894,0.414,3.009,0.414c2.486,0,3.004,0,5.228,0c2.225,0,2.944-0.436,2.944-0.436s0.11,0.74,0.249,1.506
	c0.139,0.767,0.44,2.174,0.44,2.174l-0.312,0.07c0,0-0.469-1.177-1.13-1.998c-0.663-0.821-1.361-0.649-2.096-0.686
	c-0.735-0.037-1.453-0.038-1.453-0.038c-0.022,0.855-0.032,2.561-0.032,3.589c0,0.543,0,3.75,0,4.208
	c0,1.202,0.017,1.881,0.088,2.511c0.079,0.717,0.449,1.043,1.289,1.188l0.81,0.111L171.036,17.439z"/>
<path fill="#FFFFFF" d="M109.311,14.01c0,0-0.278,0.947-0.496,1.839c-0.217,0.892-0.37,1.615-0.37,1.615s-4.375-0.059-6.141-0.059
	c-1.366,0-4.225,0.036-4.225,0.036v-0.274l0.626-0.099c1.024-0.172,1.041-1.077,1.076-1.646c0.038-0.61,0.043-1.173,0.043-2.201
	V9.013c0-0.519-0.004-0.974-0.016-1.38c-0.017-1.203-0.109-1.718-0.321-2c-0.197-0.262-0.518-0.383-0.803-0.408
	c-0.059-0.005-0.118-0.008-0.172-0.005c-0.555,0.031-0.981,0.594-1.318,1.229c-0.119,0.211-0.224,0.427-0.316,0.626
	c0,0-3.195,7.44-3.594,8.28c-0.399,0.84-1.214,2.307-1.214,2.307h-0.383c0,0-0.922-2.17-1.427-3.347
	c-0.504-1.176-2.038-4.83-2.593-6.095c-0.186-0.422-0.348-0.788-0.5-1.107c-0.144-0.365-0.794-1.786-1.667-1.824
	c-0.479,0-0.762,0.259-0.927,0.638c-0.204,0.395-0.234,1.015-0.234,2.028l-0.091,9.483l-0.445,0.191
	c-1.433-1.712-3.326-3.983-4.579-5.462c-1.907-2.25-4.096-4.749-4.096-4.749l0.045,6.916c0.037,2.156,0.402,2.559,1.59,2.778
	l0.347,0.054v0.274c-0.347,0-1.537-0.036-2.213-0.036s-1.95,0.036-2.353,0.036v-0.274l0.219-0.036
	c1.115-0.201,1.522-0.622,1.558-2.814l0.025-6.885c0-0.673-0.116-1.094-0.454-1.408c-0.448-0.41-0.915-0.634-1.397-0.766
	l-0.256-0.055V4.905c0.402,0.019,1.405,0.037,2.063,0.037c0.566,0,1.956-0.019,2.468-0.056l6.762,8.122l-0.005-4.997
	c-0.036-2.156-0.402-2.559-1.589-2.777l-0.347-0.055V4.905c0,0,2.59,0.04,4.478,0.047c0.19,0.001,0.376,0.001,0.549,0.001
	c2.222,0,4.962-0.048,4.962-0.048v0.274l-0.46,0.065c-0.224,0.045-1.094,0.085-1.094,0.849c0,0.764,1.272,3.825,1.581,4.586
	c0.309,0.762,1.429,3.504,1.429,3.504l2.311-5.511c0,0,0.678-1.538,0.678-2.412s-0.881-0.985-0.881-0.985l-0.615-0.112l0.001-0.26
	c0,0,1.742,0.04,3.56,0.071l0,0c1.111,0.018,2.25,0.033,3.036,0.033c1.958,0,6.458-0.103,6.458-0.103s0.327,0.973,0.567,1.608
	c0.239,0.635,0.519,1.307,0.519,1.307l-0.351,0.132c0,0-0.725-1.066-1.273-1.614c-0.602-0.601-1.305-0.85-2.671-0.85
	c-0.933,0-1.901,0.2-1.901,0.2c-0.037,0.804-0.07,2.504-0.07,3.533v1.452c2.072-0.052,2.536-0.093,3.06-0.625
	c0.54-0.549,0.75-1.777,0.75-1.777l0.327-0.006c0,0-0.084,1.595-0.084,2.76c0,1.166,0.084,2.826,0.084,2.826l-0.327-0.006
	c0,0-0.193-1.163-0.812-1.828c-0.665-0.715-1.269-0.679-2.999-0.708v1.472c0,0,0.02,1.827,0.074,2.721
	c0.089,1.445,1.159,1.346,2.349,1.346c1.189,0,1.875-0.087,2.742-0.908c0.867-0.821,1.405-2.044,1.405-2.044L109.311,14.01z"/>
<path fill="#FFFFFF" d="M13.034,17.439c0,0-2.575-0.055-4.252-0.055c-1.677,0-4.323,0.055-4.323,0.055v-0.28l0.914-0.128
	c1.753-0.321,1.792-1.056,1.851-2.735c0,0,0.05-1.883,0.05-2.993c0-2.503,0-4.049,0-5.216c0-1.262-0.019-4.646-0.019-4.646
	s-0.45,0.011-1.48,0.011c-1.03,0-2.493,0.055-3.367,0.953c-0.75,0.769-1.739,2.804-2.086,3.48L0,5.789c0,0,0.334-1.368,0.667-3.029
	C0.999,1.098,1.164,0,1.164,0s1.694,0.702,4.417,0.702c1.66,0,3.648,0,6.007,0c2.41,0,4.698-0.702,4.698-0.702
	s0.09,0.832,0.335,2.289c0.245,1.457,0.41,2.171,0.41,2.171H16.61c-0.504-1.087-1.18-1.953-2.125-2.501s-2.904-0.512-3.272-0.512
	c-0.382,0-0.946-0.006-0.946-0.006s-0.02,3.384-0.02,4.646c0,1.167,0,2.712,0,5.216c0,1.11,0.05,2.993,0.05,2.993
	c0.059,1.68,0.113,2.466,1.821,2.735l0.914,0.128V17.439z"/>
<path fill="#FFFFFF" d="M21.777,5.179l0.848,0.133c1.024,0.172,1.027,1.066,1.062,1.636c0.038,0.61,0.043,1.172,0.043,2.201v1.602
	h-5.404V9.149c0-1.028,0.006-1.59,0.044-2.201c0.035-0.569,0.034-1.426,1.062-1.636l0.848-0.133V4.905c0,0-2.396,0.045-3.236,0.045
	s-3.042-0.044-3.042-0.044v0.274l0.459,0.065c0.724,0.123,1.07,0.313,1.172,1.028c0.094,0.659,0.114,1.539,0.114,2.74v4.208
	c0,1.028-0.005,1.591-0.043,2.201c-0.036,0.569-0.039,1.491-1.062,1.663l-0.64,0.082v0.274c0,0,2.238-0.036,3.079-0.036
	s3.199,0.036,3.199,0.036l0.002-0.273l-0.669-0.065c-0.724-0.123-1.07-0.314-1.172-1.027c-0.094-0.659-0.114-1.517-0.114-2.718
	v-1.896h5.404v1.896c0,1.202-0.02,2.06-0.114,2.718c-0.102,0.713-0.449,0.905-1.173,1.027l-0.669,0.065l0.002,0.273
	c0,0,2.358-0.036,3.199-0.036c0.841,0,3.079,0.036,3.079,0.036v-0.28l-0.567-0.068c-1.067-0.188-1.099-1.102-1.134-1.67
	c-0.039-0.61-0.044-1.173-0.044-2.201V9.013c0-1.202,0.02-2.082,0.114-2.74c0.102-0.715,0.449-0.905,1.173-1.028l0.459-0.065V4.905
	c0,0-2.201,0.044-3.042,0.044s-3.236-0.045-3.236-0.045V5.179z"/>
<path fill="#FFFFFF" d="M39.863,14.01c0,0-0.278,0.947-0.495,1.839c-0.218,0.892-0.37,1.614-0.37,1.614
	c-3.644-0.016-3.644-0.059-6.141-0.059c-1.367,0-4.225,0.036-4.225,0.036v-0.273l0.583-0.09c1.12-0.218,1.084-1.087,1.12-1.656
	c0.038-0.61,0.043-1.173,0.043-2.201V9.013c0-1.202-0.02-2.082-0.114-2.741c-0.102-0.714-0.449-0.905-1.173-1.028l-0.459-0.065
	V4.905c0,0,2.638,0.064,4.347,0.064c1.709,0,5.157-0.066,5.157-0.066s0.328,0.973,0.567,1.608s0.52,1.307,0.52,1.307l-0.309,0.131
	c0,0-0.767-1.065-1.314-1.612c-0.602-0.601-1.305-0.85-2.672-0.85c-0.932,0-1.901,0.2-1.901,0.2c-0.037,0.804-0.07,2.504-0.07,3.533
	v1.452c2.072-0.052,2.537-0.093,3.06-0.625c0.54-0.549,0.75-1.777,0.75-1.777l0.328-0.005c0,0-0.084,1.595-0.084,2.76
	c0,1.166,0.084,2.826,0.084,2.826l-0.328-0.006c0,0-0.193-1.163-0.811-1.828c-0.665-0.715-1.27-0.679-2.999-0.708v1.472
	c0,0,0.02,1.827,0.075,2.721c0.088,1.445,1.159,1.346,2.349,1.346c1.189,0,1.875-0.087,2.742-0.908
	c0.867-0.821,1.405-2.044,1.405-2.044L39.863,14.01z"/>
<path fill="#FFFFFF" d="M156.797,17.034c-3.047,0-3.713-3.362-3.713-3.362h-0.338c0,0,0.077,2.72,0.077,3.754h0.278l0.526-0.58
	c0,0,1.567,0.768,3.039,0.768c2.72,0,4.867-1.731,4.867-4.05c0-1.924-1.011-2.613-3.859-3.91c-1.721-0.812-2.558-1.6-2.558-2.605
	c0-0.888,0.393-1.873,2.038-1.873c2.376,0,3.186,3.114,3.186,3.114h0.351c0,0,0-0.768,0.017-1.596
	c0.014-0.683,0.094-1.85,0.094-1.85l-0.312-0.041l-0.531,0.672c0,0-1.255-0.797-2.729-0.797c-2.767,0-4.536,1.652-4.536,3.574
	c0,1.645,0.831,2.667,3.633,4.032c2.029,0.988,2.691,1.533,2.691,2.772C159.018,16.187,158.19,17.034,156.797,17.034z"/>
</svg>
