<?xml version="1.0" encoding="utf-8"?>
<!-- Generator: Adobe Illustrator 15.0.0, SVG Export Plug-In . SVG Version: 6.00 Build 0)  -->
<!DOCTYPE svg PUBLIC "-//W3C//DTD SVG 1.1//EN" "http://www.w3.org/Graphics/SVG/1.1/DTD/svg11.dtd">
<svg version="1.1" id="Layer_1" xmlns="http://www.w3.org/2000/svg" xmlns:xlink="http://www.w3.org/1999/xlink" x="0px" y="0px"
	 width="497.346px" height="63.184px" viewBox="0 0 497.346 63.184" enable-background="new 0 0 497.346 63.184"
	 xml:space="preserve">
<path fill="#FFFFFF" d="M67.291,31.359c0-20.916,9.337-31.266,22.963-31.266c13.625,0,23.411,10.35,23.411,31.266
	S103.878,62.92,90.254,62.92C76.628,62.92,67.291,52.275,67.291,31.359L67.291,31.359z M100.134,31.358
	c0-20.382-4.451-25.886-9.839-25.886c-5.39,0-8.949,5.504-8.949,25.886s3.56,25.886,8.949,25.886
	C95.684,57.244,100.134,51.74,100.134,31.358L100.134,31.358z"/>
<path fill="#FFFFFF" d="M17.047,5.725v27.946h2.096c5.399,0,9.297-7.103,9.297-13.945c0-6.353-2.627-14.001-9.227-14.001H17.047
	L17.047,5.725z M17.047,38.993v16.309c0,1.341,0.812,1.977,1.906,1.977h2.242v5.345H0v-5.345h2.242c1.094,0,1.659-0.636,1.659-1.977
	V7.698c0-1.341-0.565-1.974-1.659-1.974H0V0.432h23.207c12.229,0,19.184,9.413,19.184,19.294c0,9.675-8.342,19.248-22.033,19.268
	H17.047L17.047,38.993z"/>
<path fill="#FFFFFF" d="M258.437,35.787h-2.02l0.001,19.515c0,1.341,0.811,1.977,1.904,1.977h2.243v5.345h-21.195v-5.345h2.243
	c1.094,0,1.658-0.636,1.658-1.977V7.698c0-1.341-0.564-1.963-1.658-1.963h-2.243V0.432h23.375c12.229,0,19.101,6.976,19.101,16.857
	c0,6.486-3.713,12.582-10.287,15.9l8.816,18.426c2.003,4.19,4.068,5.673,5.841,5.673h1.518v5.335h-8.283
	c-9.481,0-11.095-4.928-13.665-11.297L258.437,35.787L258.437,35.787z M256.417,30.464h2.264c5.399,0,9.212-6.333,9.212-13.175
	c0-6.354-2.541-11.555-9.141-11.555l-2.334-0.01L256.417,30.464L256.417,30.464z"/>
<path fill="#FFFFFF" d="M60.92,55.302c0,1.341,0.812,1.977,1.906,1.977h2.242v5.345H43.873v-5.345h2.242
	c1.095,0,1.659-0.636,1.659-1.977V7.698c0-1.341-0.564-1.963-1.659-1.963h-2.242V0.432h21.195v5.303h-2.242
	c-1.094,0-1.906,0.635-1.906,1.977V55.302L60.92,55.302z"/>
<path fill="#FFFFFF" d="M125.645,17.182v36.456c0,2.028,1.5,3.65,3.953,3.65h2.481v5.335h-17.237l-0.001-5.335h1.634
	c2.459,0,3.835-1.622,3.835-3.65l-0.001-46.94c-0.48-0.627-1.248-0.971-2.078-0.971h-3.379V0.433h17.143l17.95,35.696V9.79
	c0-2.028-1.536-4.019-3.989-4.019h-2.481v-5.34h17.252l0.001,5.34h-1.634c-2.457,0-3.834,1.99-3.834,4.019v49.204
	c0,1.229,0.477,2.795,0.803,3.589h-7.512L125.645,17.182L125.645,17.182z"/>
<path fill="#FFFFFF" d="M180.08,5.734v22.263h5.844c2.354,0,3.867-3.529,3.867-5.799h4.622v16.894h-4.622
	c0-2.27-1.513-5.799-3.867-5.799h-5.844v22.009c0,1.341,0.811,1.977,1.905,1.977h3.771c3.805,0,6.228-3.117,6.913-6.294l0.862-3.994
	h5.317v15.633h-35.816v-5.345h2.243c1.094,0,1.659-0.636,1.659-1.977V7.698c0-1.341-0.565-1.963-1.659-1.963h-2.243V0.432
	l34.491-0.013v14.638h-5.34l-0.88-4.121c-0.67-3.135-3.193-5.201-6.382-5.201H180.08L180.08,5.734z"/>
<path fill="#FFFFFF" d="M218.236,5.734v22.263h5.846c2.353,0,3.865-3.529,3.865-5.799h4.623v16.894h-4.623
	c0-2.27-1.512-5.799-3.865-5.799h-5.846v22.009c0,1.341,0.812,1.977,1.906,1.977h3.772c3.803,0,6.227-3.117,6.912-6.294l0.861-3.994
	h5.318v15.633h-35.816v-5.345h2.242c1.095,0,1.659-0.636,1.659-1.977V7.698c0-1.341-0.564-1.963-1.659-1.963h-2.242V0.432
	l34.491-0.013v14.638h-5.34l-0.879-4.121c-0.67-3.135-3.194-5.201-6.384-5.201H218.236L218.236,5.734z"/>
<path fill="#FFFFFF" d="M476.777,57.897c4.557,0,6.953-3.887,6.953-9.665c0-4.98-2.816-8.805-9.33-13.553
	c-7.912-5.768-12.021-10.495-12.021-20.004C462.38,5.683,470.197,0,480.288,0c3.808,0,10.165,1.354,12.603,2.869v12.188h-5.34
	l-0.88-4.121c-0.671-3.146-3.193-5.631-6.383-5.631c-2.694,0-5.72,2.61-5.72,5.925c0,5.637,3.939,9.892,9.96,13.952
	c7.103,4.791,12.817,11.893,12.817,21.097c0,9.409-7.116,16.905-20.568,16.905c-4.645,0-11.705-1.531-13.788-2.52V46.99h5.317
	l0.861,3.49C470.229,54.776,472.972,57.897,476.777,57.897L476.777,57.897z"/>
<path fill="#FFFFFF" d="M361.312,35.787h-2.02v19.515c0,1.341,0.811,1.977,1.905,1.977h2.242v5.345h-21.195v-5.345h2.243
	c1.094,0,1.658-0.636,1.658-1.977V7.698c0-1.341-0.564-1.963-1.658-1.963h-2.243V0.432h23.376c12.229,0,19.1,6.976,19.1,16.857
	c0,6.486-3.713,12.582-10.287,15.9l8.816,18.426c2.003,4.19,4.068,5.673,5.842,5.673h1.517v5.335h-8.283
	c-9.48,0-11.095-4.928-13.665-11.297L361.312,35.787L361.312,35.787z M359.293,30.464h2.264c5.398,0,9.212-6.333,9.212-13.175
	c0-6.354-2.542-11.555-9.142-11.555l-2.334-0.01V30.464L359.293,30.464z"/>
<path fill="#FFFFFF" d="M405.497,5.734v22.263h5.845c2.354,0,3.866-3.529,3.866-5.799h4.622v16.894h-4.622
	c0-2.27-1.513-5.799-3.866-5.799h-5.845v22.009c0,1.341,0.812,1.977,1.905,1.977h3.771c3.804,0,6.228-3.117,6.912-6.294l0.862-3.994
	h5.317v15.633h-35.816v-5.345h2.243c1.094,0,1.659-0.636,1.659-1.977V7.698c0-1.341-0.565-1.963-1.659-1.963h-2.243V0.432
	l34.491-0.013v14.638h-5.34l-0.88-4.121c-0.67-3.135-3.193-5.201-6.384-5.201H405.497L405.497,5.734z"/>
<path fill="#FFFFFF" d="M440.804,57.897c4.558,0,6.953-3.887,6.953-9.665c0-4.98-2.815-8.805-9.329-13.553
	c-7.912-5.768-12.02-10.495-12.02-20.004C426.408,5.683,434.225,0,444.314,0c3.809,0,10.166,1.354,12.604,2.869v12.188h-5.34
	l-0.879-4.121c-0.672-3.146-3.194-5.631-6.385-5.631c-2.693,0-5.719,2.61-5.719,5.925c0,5.637,3.939,9.892,9.96,13.952
	c7.103,4.791,12.817,11.893,12.817,21.097c0,9.409-7.116,16.905-20.569,16.905c-4.644,0-11.704-1.531-13.787-2.52V46.99h5.317
	l0.861,3.49C434.256,54.776,436.999,57.897,440.804,57.897L440.804,57.897z"/>
<path fill="#FFFFFF" d="M315.42,5.725v27.946h2.095c5.399,0,9.296-7.103,9.296-13.945c0-6.353-2.625-14.001-9.224-14.001H315.42
	L315.42,5.725z M315.42,38.993v16.309c0,1.341,0.811,1.977,1.904,1.977h2.243v5.345h-21.195v-5.345h2.243
	c1.094,0,1.658-0.636,1.658-1.977V7.698c0-1.341-0.564-1.974-1.658-1.974h-2.243V0.432h23.207c12.229,0,19.185,9.413,19.185,19.294
	c0,9.675-8.343,19.248-22.033,19.268H315.42L315.42,38.993z"/>
</svg>
