<?xml version="1.0" encoding="utf-8"?>
<!-- Generator: Adobe Illustrator 15.0.0, SVG Export Plug-In . SVG Version: 6.00 Build 0)  -->
<!DOCTYPE svg PUBLIC "-//W3C//DTD SVG 1.1//EN" "http://www.w3.org/Graphics/SVG/1.1/DTD/svg11.dtd">
<svg version="1.1" id="Layer_1" xmlns="http://www.w3.org/2000/svg" xmlns:xlink="http://www.w3.org/1999/xlink" x="0px" y="0px"
	 width="580.76px" height="70.416px" viewBox="0 0 580.76 70.416" enable-background="new 0 0 580.76 70.416" xml:space="preserve">
<path fill="#FFFFFF" d="M19.136,37.491c0.085-0.26,4.849-9.529,4.849-9.529L51,27.88c0,0,4.805,0.778,4.849-6.927
	c0.021-3.555-1.281-6.321-5.456-6.494c-2.855-0.119-31.257,0-31.257,0V37.491L19.136,37.491z M0,1.116h57.753
	c0,0,13.161-0.363,13.508,11.958c0.347,12.295,0.173,13.854,0.173,13.854s-1.039,8.659-11.43,9.004l-0.086,0.606
	c0,0,2.771-0.087,4.156,1.559c2.207,2.621,4.242,7.013,4.242,7.013l8.92,19.742c0,0,1.645,3.725,3.289,3.811H60.87
	c0,0-1.299-0.866-3.724-6.927c-3.53-8.826-5.888-14.979-5.888-14.979s-1.905-5.11-8.14-5.196c-7.187-0.099-24.07,0-24.07,0v20.166
	c0,0,1.383,7.015,3.289,7.015H0.865c0,0,2.424-2.236,2.424-6.928c0-3.982-0.003-56.281-0.003-56.281S2.424,1.29,0,1.116L0,1.116z"/>
<path fill="#FFFFFF" d="M140.979,17.836c0-2.424-5.368-3.723-5.368-3.723H98.377V35.76l4.85-8.399c0,0,31.565,0,33.77,0
	c2.164,0,3.723-2.51,3.723-2.51v18.009c-0.692-1.559-4.156-2.252-4.156-2.252H98.291v15.067c0,0,35.155,0.173,38.965,0
	c3.81-0.174,4.676-3.117,4.676-3.117v16.105H77.684c4.675,0.346,4.502-5.022,4.502-5.022s0-52.472,0-56.628
	c0-4.156-3.291-5.888-3.291-5.888h62.171L140.979,17.836L140.979,17.836z"/>
<path fill="#FFFFFF" d="M229.898,25.877c-0.838,7.612-1.668,19.596,1.488,26.204c1.992,4.172,5.062,4.548,8.75,5.095
	c7.944,1.177,17.446,1.599,25.645-0.866c3.009-0.903,4.21-4.513,4.621-7.429c1.379-9.791,1.927-19.186-0.527-29.023
	c-0.992-3.979-4.699-5.017-8.209-5.987c-4.083-1.129-17.105-1.649-25.525,0.728C230.291,16.25,230.49,20.503,229.898,25.877
	L229.898,25.877z M214.899,23.482c1.146-8.809,2.985-20.453,12.21-22.023c14.258-2.427,38.717-1.715,49.042,1.318
	c4.975,1.461,9.269,5.49,9.798,10.431c1.659,15.491,2.366,31.583-2.448,46.685c-2.619,8.217-9.024,8.386-15.323,9.508
	c-4.709,0.841-31.709,2.946-45.15-3.424c-4.242-2.01-6.199-6.989-6.814-10.847C214.408,43.844,213.661,33.015,214.899,23.482
	L214.899,23.482z"/>
<path fill="#FFFFFF" d="M404.041,63.186c0.369,2.95,0.224,3.174,2.07,5.532c-6.468,0-13.533,0-20.002,0
	c1-1.414,1.426-3.951,1.676-6.396v-0.304c-0.011-0.477-0.067-47.565-0.074-47.766c-0.252,0.025-18.466-0.045-21.19,0.122
	l-0.087,0.169c-1.863,0.38-3.061,1.19-3.962,1.83c0-4.851,0-10.369,0-15.221c21.809-0.097,42.772-0.013,65.286-0.019
	c-0.122,4.868,0.051,10.672,0.088,15.586c-1.311-2.151-4.415-2.63-5.021-2.61c-0.679,0.023-18.771-0.117-18.77-0.074
	c0.048,0.945-0.003,48.562-0.015,48.631"/>
<path fill="#FFFFFF" d="M189.604,30.978c7.519,0.061,7.658-3.562,7.773-7.98c0.035-1.337,0.703-8.888-7.951-8.821
	c-2.938,0.023-24.574,0.078-26.193,0.016c-0.213,8.401,0.158,23.581,0,25.587c0.236-0.439,5.562-8.742,5.562-8.742l0,0
	C173.557,31.026,183.662,30.931,189.604,30.978L189.604,30.978z M147.94,6.813c0.059-2.036-1.898-4.573-2.817-5.698
	c19.633,0.086,34.963-0.23,56.364,0c9.896,0.106,10.644,12.585,11.079,21.017c0.168,3.253-1.074,11.598-2.604,14.601
	c-1.627,3.19-4.016,6.25-7.572,6.702c-12.77,1.625-35.891,0.91-38.895,0.976c0.002,16.876-1.232,17.157,2.939,24.245
	c-6.698,0-14.168,0-20.867,0c1.537-1.28,2.703-3.009,2.703-6.581c0.007-21.194-0.407-42.052-0.331-54.742V6.813L147.94,6.813z"/>
<path fill="#FFFFFF" d="M308.094,37.491c0.086-0.26,4.849-9.529,4.849-9.529l27.016-0.082c0,0,4.806,0.778,4.849-6.927
	c0.021-3.555-1.28-6.321-5.455-6.494c-2.854-0.119-31.258,0-31.258,0V37.491L308.094,37.491z M288.958,1.116h57.754
	c0,0,13.161-0.363,13.508,11.958c0.347,12.295,0.173,13.854,0.173,13.854s-1.039,8.659-11.429,9.004l-0.088,0.606
	c0,0,2.771-0.087,4.158,1.559c2.205,2.621,4.242,7.013,4.242,7.013l8.918,19.742c0,0,1.645,3.725,3.29,3.811H349.83
	c0,0-1.3-0.866-3.725-6.927c-3.53-8.826-5.888-14.979-5.888-14.979s-1.905-5.11-8.139-5.196c-7.188-0.099-24.071,0-24.071,0V61.39
	c0,0,1.383,7.352,3.289,7.352h-21.474c0,0,2.425-2.574,2.425-7.266c0-3.981-0.173-55.943-0.173-55.943S291.383,1.29,288.958,1.116
	L288.958,1.116z"/>
<path fill="#FFFFFF" d="M492.873,17.836c0-2.424-5.368-3.723-5.368-3.723h-37.233V35.76l4.85-8.399c0,0,31.564,0,33.769,0
	c2.165,0,3.724-2.51,3.724-2.51v18.009c-0.692-1.559-4.155-2.252-4.155-2.252h-38.273v15.067c0,0,35.155,0.173,38.965,0
	c3.811-0.174,4.676-3.117,4.676-3.117v16.158h-62.452c3.376-0.053,2.708-7.271,2.708-7.271s0-50.277,0-54.433
	c0-4.156-3.291-5.888-3.291-5.888h62.17L492.873,17.836L492.873,17.836z"/>
<path fill="#FFFFFF" d="M519.37,37.491c-0.021,0.061,4.848-9.529,4.848-9.529l27.016-0.082c0,0,4.806,0.778,4.85-6.927
	c0.021-3.555-1.281-6.321-5.456-6.494c-2.854-0.119-31.257,0-31.257,0V37.491L519.37,37.491z M500.232,1.116h57.754
	c0,0,13.161-0.025,13.51,12.296c0.346,12.295,0.172,13.855,0.172,13.855s-1.038,8.658-11.429,9.004l-0.087,0.606
	c0,0,2.771-0.087,4.156,1.559c2.206,2.62,4.242,7.014,4.242,7.014l8.919,19.741c0,0,1.645,3.725,3.29,3.811h-19.655
	c0,0-1.299-0.866-3.724-6.927c-3.53-8.826-5.887-14.979-5.887-14.979s-1.906-5.11-8.141-5.196c-7.187-0.099-24.071,0-24.071,0
	v19.828c0,0,1.385,7.015,3.291,7.015h-21.475c0,0,2.424-2.236,2.424-6.928c0-3.982-0.004-56.281-0.004-56.281
	S502.657,1.29,500.232,1.116L500.232,1.116z"/>
</svg>
