<?xml version="1.0" encoding="utf-8"?>
<!-- Generator: Adobe Illustrator 15.0.0, SVG Export Plug-In . SVG Version: 6.00 Build 0)  -->
<!DOCTYPE svg PUBLIC "-//W3C//DTD SVG 1.1//EN" "http://www.w3.org/Graphics/SVG/1.1/DTD/svg11.dtd">
<svg version="1.1" id="Layer_1" xmlns="http://www.w3.org/2000/svg" xmlns:xlink="http://www.w3.org/1999/xlink" x="0px" y="0px"
	 width="580.76px" height="147.443px" viewBox="0 0 580.76 147.443" enable-background="new 0 0 580.76 147.443"
	 xml:space="preserve">
<path fill="#0062AF" d="M259.143,11.047l-25.789,2.856l-0.077,0.009l-0.078,0.011c-4.132,0.604-11.944,4.125-11.944,13.141v3.024
	h-86.187h-11.214l8.06,7.796l12.179,11.781l-11.847,12.111l-7.54,7.708h10.782h87.11c6.693,0,10.576-4.361,11.815-6.938l0.188-0.394
	l0.111-0.422c0.543-2.075,0.398-3.907-0.095-5.446c1.293-1.569,1.753-3.456,1.593-5.209c5.428-0.85,13.193-1.28,22.652,0.367
	l5.314,0.925v-5.394V15.555v-5.066L259.143,11.047L259.143,11.047z"/>
<path fill="#FFD700" d="M259.393,13.301l-25.789,2.856c-3.538,0.515-10.082,3.441-10.082,10.906v5.292h-88.454h-5.606l4.029,3.898
	l13.818,13.366l-13.442,13.741l-3.771,3.854h5.392h87.11c6.974,0,9.66-5.422,9.771-5.653l0.094-0.197l0.057-0.211
	c0.578-2.21,0.154-4.05-0.59-5.429c2.584-1.949,2.305-4.84,1.438-6.366l-0.041-0.073c5.647-1.143,14.629-2.047,25.925-0.081
	l2.657,0.463v-2.697V15.555v-2.533L259.393,13.301L259.393,13.301z"/>
<path fill="#0062AF" d="M225.789,49.072V27.063c0-7.476,8.064-8.652,8.064-8.652l25.787-2.856v31.417
	C238.893,43.36,225.789,49.072,225.789,49.072L225.789,49.072z"/>
<path fill="#0062AF" d="M135.487,64.948h87.11c5.627,0,7.728-4.368,7.728-4.368c0.924-3.528-1.765-5.375-1.765-5.375
	c-5.543-3.36-4.957-7.393-4.957-7.393V34.624h-88.536l15.456,14.952L135.487,64.948L135.487,64.948z"/>
<path fill="#0062AF" d="M226.86,50.763l3.495,3.307c2.238-1.48,1.039-3.591,1.039-3.591c-1.699-1.48-3.979-0.031-3.979-0.031
	C227.09,50.542,226.86,50.763,226.86,50.763L226.86,50.763z"/>
<path fill="#0062AF" d="M313.464,10.489v5.066v31.417v5.394l5.314-0.925c9.46-1.647,17.226-1.217,22.653-0.367
	c-0.16,1.753,0.299,3.641,1.591,5.209c-0.493,1.54-0.638,3.371-0.094,5.446l0.111,0.422l0.188,0.394
	c1.239,2.577,5.122,6.938,11.816,6.938h87.109h10.781l-7.538-7.708l-11.847-12.111l12.177-11.781l8.061-7.796h-11.213h-86.187
	v-3.024c0-9.016-7.812-12.538-11.946-13.141l-0.076-0.011l-0.077-0.009L318.5,11.047L313.464,10.489L313.464,10.489z"/>
<path fill="#FFD700" d="M318.25,13.301l25.789,2.856c3.538,0.515,10.083,3.441,10.083,10.906v5.292h88.453h5.605l-4.029,3.898
	l-13.817,13.366l13.441,13.741l3.771,3.854h-5.392h-87.109c-6.975,0-9.662-5.422-9.772-5.653l-0.095-0.197l-0.055-0.211
	c-0.579-2.21-0.155-4.05,0.59-5.429c-2.584-1.949-2.306-4.84-1.44-6.366l0.042-0.073c-5.646-1.143-14.629-2.047-25.926-0.081
	l-2.657,0.463v-2.697V15.555v-2.533L318.25,13.301L318.25,13.301z"/>
<path fill="#0062AF" d="M351.854,49.072V27.063c0-7.476-8.063-8.652-8.063-8.652L318,15.555v31.417
	C338.749,43.36,351.854,49.072,351.854,49.072L351.854,49.072z"/>
<path fill="#0062AF" d="M442.154,64.948h-87.109c-5.628,0-7.728-4.368-7.728-4.368c-0.925-3.528,1.764-5.375,1.764-5.375
	c5.544-3.36,4.957-7.393,4.957-7.393V34.624h88.537l-15.456,14.952L442.154,64.948L442.154,64.948z"/>
<path fill="#0062AF" d="M350.782,50.763l-3.496,3.307c-2.237-1.48-1.039-3.591-1.039-3.591c1.7-1.48,3.979-0.031,3.979-0.031
	C350.551,50.542,350.782,50.763,350.782,50.763L350.782,50.763z"/>
<path fill="#FFFFFF" d="M289.209,67.735c22.504,0,40.748-14.148,40.748-31.599c0-17.452-18.244-31.6-40.748-31.6
	c-22.503,0-40.746,14.148-40.746,31.6C248.463,53.587,266.706,67.735,289.209,67.735L289.209,67.735z"/>
<path fill="#0062AF" d="M289.209,72.271c24.969,0,45.284-16.21,45.284-36.135C334.493,16.211,314.178,0,289.209,0
	c-24.968,0-45.283,16.211-45.283,36.136C243.926,56.061,264.241,72.271,289.209,72.271L289.209,72.271z"/>
<path fill="#FFD700" d="M289.209,2.268c-23.718,0-43.015,15.193-43.015,33.868c0,18.674,19.297,33.867,43.015,33.867
	s43.016-15.193,43.016-33.867C332.225,17.461,312.927,2.268,289.209,2.268L289.209,2.268z"/>
<path fill="#0062AF" d="M289.209,67.735c22.504,0,40.748-14.148,40.748-31.599c0-17.452-18.244-31.6-40.748-31.6
	c-22.503,0-40.746,14.148-40.746,31.6C248.463,53.587,266.706,67.735,289.209,67.735L289.209,67.735z"/>
<path fill="#FFFFFF" d="M210.456,42.703c1.05-0.011,2.068,0.431,2.646,1.386c0.588,1.081,0.484,2.415,0.356,3.633
	c-0.052,0.809-0.481,1.68-1.259,1.964c-0.253,0.084-0.516,0.136-0.756,0.251c0.871,0.2,1.89,0.704,2.162,1.638
	c0.283,1.092,0.242,2.216,0.031,3.329c-0.22,0.892-0.871,1.869-1.763,2.215c-0.577,0.21-1.229,0.22-1.87,0.284l-9.671-0.032v-3.044
	c0.347,0.094,0.693,0.336,1.134,0.272l8.139-0.02c0.504-0.084,0.882-0.505,1.008-0.987c0.062-0.63,0.126-1.387-0.283-1.89
	c-0.945-0.861-2.436-0.441-3.695-0.557l-3.582,0.032c-0.283,0.084-0.588,0.125-0.86,0.251l-0.021-3.076l0.051-0.126
	c0.295,0.158,0.641,0.21,0.978,0.252l6.278-0.021c0.283-0.053,0.558-0.273,0.684-0.535c0.168-0.305,0.073-0.714,0.168-1.06
	c-0.126-0.096,0.053-0.221-0.042-0.326c-0.073-0.273-0.137-0.567-0.379-0.756c-0.44-0.199-0.935-0.241-1.438-0.272l-6.752,0.021
	c-0.314,0.073-0.64,0.137-0.912,0.304c-0.096-0.998-0.032-2.069-0.053-3.097l0.283-0.053L210.456,42.703L210.456,42.703z"/>
<path fill="#FFFFFF" d="M163.305,42.735l0.051,0.094l-0.051,1.187l0.104,12.254c0.115,0.346,0.147,0.808,0.472,1.082
	c-0.85,0.116-1.953-0.031-2.865,0.053c-0.432,0-0.957,0-1.387,0l-0.052-0.053c0.294-0.294,0.378-0.714,0.397-1.134l-0.094-10.154
	c-0.137-0.472-0.662-0.641-1.06-0.661c-0.242,0.01-0.505-0.021-0.735,0.031c0.504-0.893,1.028-1.774,1.491-2.677l0.104-0.053
	C160.879,42.756,162.129,42.724,163.305,42.735L163.305,42.735z"/>
<path fill="#FFFFFF" d="M175.201,50.893c-1.439,0.011-3.098-0.21-4.368,0.378c-0.558,0.452-0.505,1.271-0.452,1.932
	c0.063,0.683,0.672,1.04,1.26,1.187c1.754,0.252,3.654,0.2,5.346-0.147c0.304-0.209,0.64-0.472,0.682-0.861
	c0.096-0.767,0.231-1.691-0.504-2.163C176.598,50.883,175.883,50.925,175.201,50.893L175.201,50.893z M176.461,45.191
	c-1.732-0.188-3.527-0.304-5.197,0.105c-0.431,0.178-0.515,0.619-0.599,1.007c-0.032,0.693-0.169,1.649,0.599,1.985
	c1.069,0.283,2.268,0.2,3.401,0.178c1.019-0.137,2.269,0.094,2.72-0.956c0.157-0.703,0.211-1.638-0.42-2.121L176.461,45.191
	L176.461,45.191z M180.535,44.289c0.314,1.354,0.462,3.182-0.326,4.411c-0.336,0.482-0.935,0.619-1.386,0.903
	c0.724,0.147,1.418,0.441,1.869,1.113c0.546,1.302,0.378,3.097-0.054,4.431c-0.24,0.609-0.682,0.987-1.207,1.333
	c-1.668,0.882-3.789,0.84-5.744,0.882c-2.225-0.094-4.682,0.168-6.047-1.785c-0.715-1.26-0.703-3.287-0.211-4.589
	c0.367-0.62,1.039-1.039,1.691-1.229c-0.578-0.189-1.134-0.672-1.406-1.218c-0.348-1.701-0.474-3.875,0.881-5.134l0.883-0.557
	c1.449-0.525,3.224-0.452,4.787-0.556C176.482,42.503,179.295,42,180.535,44.289L180.535,44.289z"/>
<path fill="#FFFFFF" d="M191.426,50.893c-1.439,0.011-3.099-0.21-4.369,0.378c-0.557,0.452-0.504,1.271-0.451,1.932
	c0.062,0.683,0.672,1.04,1.26,1.187c1.754,0.252,3.654,0.2,5.346-0.147c0.305-0.209,0.641-0.472,0.682-0.861
	c0.095-0.767,0.23-1.691-0.504-2.163C192.822,50.883,192.107,50.925,191.426,50.893L191.426,50.893z M192.686,45.191
	c-1.732-0.188-3.528-0.304-5.198,0.105c-0.431,0.178-0.515,0.619-0.599,1.007c-0.031,0.693-0.168,1.649,0.599,1.985
	c1.071,0.283,2.269,0.2,3.401,0.178c1.02-0.137,2.269,0.094,2.721-0.956c0.158-0.703,0.21-1.638-0.422-2.121L192.686,45.191
	L192.686,45.191z M196.76,44.289c0.314,1.354,0.461,3.182-0.326,4.411c-0.336,0.482-0.934,0.619-1.387,0.903
	c0.725,0.147,1.418,0.441,1.87,1.113c0.546,1.302,0.378,3.097-0.053,4.431c-0.242,0.609-0.683,0.987-1.207,1.333
	c-1.67,0.882-3.791,0.84-5.744,0.882c-2.226-0.094-4.685,0.168-6.048-1.785c-0.715-1.26-0.704-3.287-0.21-4.589
	c0.366-0.62,1.039-1.039,1.69-1.229c-0.578-0.189-1.135-0.672-1.408-1.218c-0.346-1.701-0.473-3.875,0.883-5.134l0.882-0.557
	c1.449-0.525,3.224-0.452,4.788-0.556C192.706,42.503,195.52,42,196.76,44.289L196.76,44.289z"/>
<g>
	<defs>
		<path id="SVGID_1_" d="M289.209,67.735c22.504,0,40.748-14.148,40.748-31.599c0-17.452-18.244-31.6-40.748-31.6
			c-22.503,0-40.746,14.148-40.746,31.6C248.463,53.587,266.706,67.735,289.209,67.735L289.209,67.735z"/>
	</defs>
	<clipPath id="SVGID_2_">
		<use xlink:href="#SVGID_1_"  overflow="visible"/>
	</clipPath>
	<path clip-path="url(#SVGID_2_)" fill="#FFFFFF" d="M281.308,10.942c-0.878,0.619-1.802,1.415-2.774,1.464
		c-0.704-1.355-1.641-2.664-2.807-3.841c1.576,0.034,2.978,1.472,4.052,2.604c0.269-1.491-0.437-2.89-0.815-4.203
		C280.36,7.836,281.251,9.321,281.308,10.942L281.308,10.942z"/>
	<path clip-path="url(#SVGID_2_)" fill="#FFFFFF" d="M288.207,8.795c-0.044,0.482,0.099,1.052-0.084,1.447
		c0.328,0.437,0.834-0.136,1.298-0.096c0.975-0.05,1.581,0.604,1.91,1.26c0.332,1.137-0.87,1.846-1.516,2.42
		c0.512,0.26,0.979,0.695,1.12,1.264c0.006,0.789-0.499,1.625-1.333,1.806c-0.976,0.005-2.826,0.543-2.929-0.858
		c0.129-1.623-0.623-3.197-2.021-4.372c-0.703-1.179-2.646-0.247-2.887-1.56c0.042-0.833,0.223-1.667,0.962-2.11
		c0.74-0.224,1.671,0.165,1.907,0.908C285.184,7.586,287.778,7.044,288.207,8.795L288.207,8.795z"/>
	<path clip-path="url(#SVGID_2_)" fill="#FFFFFF" d="M276.91,20c-0.415,0.354-1.062,0.796-1.529,0.448
		c-0.144-0.876,0.084-1.622,0.637-2.24l2.125-1.241C278.334,17.974,277.461,19.032,276.91,20L276.91,20z"/>
	<path clip-path="url(#SVGID_2_)" fill="#FFFFFF" d="M286.608,57.946c0.528,2.891,0.919,6,0.612,9.115
		c-0.802-2.143-1.096-4.684-1.944-6.914c-0.146-1.007-1.125-1.834-0.761-2.933C285.259,57.297,286.187,57.335,286.608,57.946
		L286.608,57.946z"/>
	<path clip-path="url(#SVGID_2_)" fill="#FFFFFF" d="M287.93,69.161c0.163-3.728,0.046-7.628-0.439-11.22l0.462-0.222
		c1.812,0.34,3.851,0.064,5.57,0.58c-1.23,3.602-2.971,7.163-3.039,11.065"/>
	<path clip-path="url(#SVGID_2_)" fill="#FFFFFF" d="M305.84,53.39c-3.464-0.704-4.46-3.384-5.416-5.982
		c-0.542-1.473-1.104-2.997-2.111-4.153l-0.008-0.01l-0.008-0.012c-1.347-2.158-3.781-3.312-6.854-3.251
		c-0.309,0.149-0.689,0.184-1.061,0.213c-0.545,0.044-0.905,0.104-1.075,0.343c2.196,0.357,4.172,1.723,6.022,4.181
		c0.941,1.065,1.585,2.519,2.207,3.926c1.359,3.079,2.646,5.987,6.838,5.649C304.85,54.161,305.61,53.875,305.84,53.39L305.84,53.39
		z"/>
	<path clip-path="url(#SVGID_2_)" fill="#FFFFFF" d="M280.54,54.459c4.767,2.415,10.582,3.223,15.99,2.237
		c-1.412-4.026-3.937-7.554-6.464-10.767c-0.678-0.869-1.425-1.661-2.147-2.426c-0.864-0.917-1.759-1.865-2.53-2.943l-0.033-0.045
		l0.003-0.057l0.606-21.869l-0.348-4.168c-0.386-0.889-0.988-1.968-2.243-2.507c-1.441-0.688-2.738,0.319-3.882,1.208
		c-0.184,0.144-0.357,0.275-0.531,0.402c0.797,2.577,0.127,5.51-1.695,7.339l-0.008,0.008l-0.01,0.007
		c-3.273,2.478-6.347,5.108-9.139,7.818l-0.756,2.356c-0.553,4.66,0.475,9.335,2.976,13.523
		C272.653,48.469,276.188,51.889,280.54,54.459L280.54,54.459z"/>
	<path clip-path="url(#SVGID_2_)" fill="#FFFFFF" d="M316.817,28.185c-3.537-4.255-8.474-6.28-14.271-5.853
		c-5.803,0.554-11.336,4.837-13.157,10.193c-0.317,0.764-0.369,1.829-0.264,2.594c2.199-2.582,5.2-3.561,7.394-3.912
		c1.429-1.599,3.211-2.688,5.456-3.33c4.147-0.897,8.087,0.561,10.538,3.898c1.962,2.528,2.192,6.583,0.533,9.434l-0.007,0.013
		l-0.01,0.012c-0.216,0.254-0.41,0.543-0.6,0.823c-0.495,0.734-1.007,1.493-1.936,1.702l-0.203,0.045l-0.001-0.208
		c-0.02-3.032-1.035-5.612-3.02-7.67c-2.938-3.133-7.257-4.431-11.554-3.473c-3.128,0.696-6.284,3.179-7.319,5.679
		c3.251-2.136,8.059-2.611,11.419-1.067c4.098,1.882,5.43,5.886,6.333,9.527c0.298-0.043,0.557-0.214,0.822-0.403
		c0.308-0.217,0.625-0.441,1.029-0.467l0.083-0.006l0.055,0.062c0.24,0.274,0.395,0.56,0.541,0.837
		c0.107,0.198,0.212,0.384,0.342,0.566c0.562-0.089,0.712-0.582,0.878-1.378c0.117-0.563,0.251-1.201,0.675-1.627l0.048-0.048
		l0.066-0.002l3.896-0.112l0.159-0.005l0.013,0.158c0.034,0.377,0.017,0.79,0.001,1.188c-0.028,0.734-0.042,1.478,0.236,2.02
		c1.8-1.459,3.173-3.389,3.972-5.606C320.665,37.459,319.801,32,316.817,28.185L316.817,28.185z"/>
	<path clip-path="url(#SVGID_2_)" fill="#FFFFFF" d="M301.672,55.212c-1.036-0.507-2.106-1.03-2.978-2.101l-0.007-0.009l-0.007-0.01
		c-0.542-0.9-1.045-1.913-1.577-2.985c-1.942-3.911-4.146-8.333-9.12-8.517l-0.039,0.171c3.625,3.972,6.915,8.719,10.055,14.508
		c0.391,0.325,0.981,0.291,1.607,0.252c0.292-0.019,0.592-0.035,0.875-0.013c0.207-0.118,0.439-0.202,0.666-0.279
		c0.476-0.163,0.876-0.319,1.047-0.756C302.02,55.384,301.843,55.296,301.672,55.212L301.672,55.212z"/>
	<path clip-path="url(#SVGID_2_)" fill="#FFFFFF" d="M304.81,46.14c-0.414-1.745-0.843-3.548-1.971-5.026
		c-1.259-1.957-3.341-3.341-5.586-3.717c-2.922-0.651-5.915,0.08-8.126,1.931c0.476-0.028,0.954-0.087,1.455-0.167
		c0.865-0.137,1.763-0.28,2.75-0.186c2.892,0.341,5.579,2.312,6.695,4.908c0.684,0.969,1.09,2.101,1.48,3.195
		c0.675,1.889,1.314,3.674,3.269,4.682c0.636,0.205,1.878,0.417,2.396-0.092C305.751,50.07,305.269,48.074,304.81,46.14
		L304.81,46.14z"/>
	<path clip-path="url(#SVGID_2_)" fill="#FFFFFF" d="M302.512,31.504l0.001,0.009c0.249,0.086,0.492,0.196,0.729,0.307
		c0.493,0.232,0.962,0.44,1.427,0.387c0.133-1.177,0.209-2.37-0.014-3.292c-0.697-0.167-1.564-0.031-2.037,0.213
		C302.314,29.798,302.422,30.74,302.512,31.504L302.512,31.504z"/>
	<path clip-path="url(#SVGID_2_)" fill="#FFFFFF" d="M308.215,29.878c-0.387-0.443-0.951-0.546-1.55-0.649
		c-0.215-0.037-0.434-0.08-0.646-0.134c-0.323,0.719-0.293,1.626-0.252,2.512c0.02,0.431,0.037,0.875,0.018,1.299
		c0.383,0.383,1.355,1.333,2.295,1.827c0.408-1.225,0.296-2.742,0.19-4.091L308.215,29.878L308.215,29.878z"/>
	<path clip-path="url(#SVGID_2_)" fill="#FFFFFF" d="M301.369,30.765c0.111-0.646,0.16-1.154-0.244-1.35
		c-0.87,0.319-2.104,0.791-2.318,1.504c0.824,0.194,1.688,0.337,2.52,0.138C301.338,30.963,301.35,30.871,301.369,30.765
		L301.369,30.765z"/>
	<path clip-path="url(#SVGID_2_)" fill="#FFFFFF" d="M267.354,31.052l0.756-2.356c2.792-2.71,5.865-5.34,9.139-7.818l0.01-0.007
		l0.008-0.008c1.822-1.829,2.492-4.762,1.695-7.339c0.174-0.126,0.348-0.258,0.531-0.402c1.144-0.889,2.44-1.896,3.882-1.208
		c1.255,0.539,1.857,1.618,2.243,2.507l0.348,4.168l-0.606,21.869l-0.003,0.057l0.033,0.045c0.771,1.078,1.666,2.026,2.53,2.943
		c0.723,0.766,1.47,1.557,2.147,2.426c2.527,3.213,5.052,6.741,6.464,10.767c-5.408,0.986-11.224,0.178-15.99-2.237
		c-4.353-2.571-7.887-5.991-10.211-9.884C267.828,40.388,266.801,35.712,267.354,31.052L267.354,31.052z"/>
	<path clip-path="url(#SVGID_2_)" fill="#FFFFFF" d="M314.995,47.377c-0.278-0.542-0.265-1.286-0.236-2.02
		c0.016-0.398,0.033-0.811-0.001-1.188l-0.013-0.158l-0.159,0.005l-3.896,0.112l-0.066,0.002l-0.048,0.048
		c-0.424,0.426-0.558,1.063-0.675,1.627c-0.166,0.796-0.315,1.289-0.878,1.378c-0.13-0.182-0.234-0.368-0.342-0.566
		c-0.146-0.277-0.301-0.562-0.541-0.837l-0.055-0.062l-0.083,0.006c-0.404,0.025-0.722,0.25-1.029,0.467
		c-0.266,0.188-0.524,0.36-0.822,0.403c-0.903-3.642-2.235-7.646-6.333-9.527c-3.36-1.544-8.168-1.069-11.419,1.067
		c1.035-2.5,4.191-4.983,7.319-5.679c4.297-0.958,8.616,0.34,11.554,3.473c1.984,2.058,3,4.638,3.02,7.67l0.001,0.208l0.203-0.045
		c0.929-0.209,1.44-0.968,1.936-1.702c0.189-0.28,0.384-0.569,0.6-0.823l0.01-0.012l0.007-0.013
		c1.659-2.851,1.429-6.906-0.533-9.434c-2.451-3.337-6.391-4.796-10.538-3.898c-2.245,0.642-4.027,1.731-5.456,3.33
		c-2.193,0.351-5.194,1.33-7.394,3.912c-0.105-0.765-0.054-1.831,0.264-2.594c1.821-5.356,7.354-9.639,13.157-10.193
		c5.797-0.428,10.733,1.598,14.271,5.853c2.983,3.814,3.848,9.274,2.149,13.586C318.168,43.988,316.795,45.918,314.995,47.377
		L314.995,47.377z"/>
	<path clip-path="url(#SVGID_2_)" fill="#FFFFFF" d="M302.617,29.129c0.473-0.244,1.34-0.38,2.037-0.213
		c0.223,0.921,0.146,2.114,0.014,3.292c-0.465,0.053-0.934-0.155-1.427-0.387c-0.236-0.111-0.479-0.221-0.729-0.307l-0.001-0.009
		C302.422,30.74,302.314,29.798,302.617,29.129L302.617,29.129z"/>
	<path clip-path="url(#SVGID_2_)" fill="#FFFFFF" d="M308.079,34.731c-0.939-0.493-1.912-1.443-2.295-1.827
		c0.02-0.424,0.002-0.868-0.018-1.299c-0.041-0.885-0.071-1.793,0.252-2.512c0.213,0.055,0.432,0.097,0.646,0.134
		c0.599,0.103,1.163,0.207,1.55,0.649l0.055,0.762C308.375,31.989,308.487,33.506,308.079,34.731L308.079,34.731z"/>
	<path clip-path="url(#SVGID_2_)" fill="#FFFFFF" d="M298.807,30.919c0.214-0.713,1.448-1.185,2.318-1.504
		c0.404,0.196,0.355,0.705,0.244,1.35c-0.02,0.105-0.031,0.198-0.043,0.292C300.494,31.256,299.631,31.113,298.807,30.919
		L298.807,30.919z"/>
	<path clip-path="url(#SVGID_2_)" fill="#FFFFFF" d="M304.776,51.761c-1.954-1.007-2.594-2.792-3.269-4.682
		c-0.391-1.095-0.797-2.227-1.48-3.195c-1.116-2.596-3.804-4.567-6.695-4.908c-0.987-0.095-1.885,0.048-2.75,0.186
		c-0.501,0.079-0.979,0.139-1.455,0.167c2.211-1.852,5.204-2.583,8.126-1.931c2.245,0.375,4.327,1.76,5.586,3.717
		c1.128,1.478,1.557,3.281,1.971,5.026c0.459,1.935,0.941,3.931,2.362,5.529C306.654,52.178,305.412,51.966,304.776,51.761
		L304.776,51.761z"/>
	<path clip-path="url(#SVGID_2_)" fill="#FFFFFF" d="M304.374,54.294c-4.192,0.337-5.479-2.571-6.838-5.649
		c-0.622-1.407-1.266-2.861-2.207-3.926c-1.851-2.458-3.826-3.824-6.022-4.181c0.17-0.239,0.53-0.299,1.075-0.343
		c0.371-0.029,0.752-0.064,1.061-0.213c3.073-0.061,5.508,1.093,6.854,3.251l0.008,0.012l0.008,0.01
		c1.008,1.156,1.569,2.68,2.111,4.153c0.956,2.598,1.952,5.278,5.416,5.982C305.61,53.875,304.85,54.161,304.374,54.294
		L304.374,54.294z"/>
	<path clip-path="url(#SVGID_2_)" fill="#FFFFFF" d="M301.147,56.229c-0.227,0.077-0.459,0.161-0.666,0.279
		c-0.283-0.021-0.583-0.005-0.875,0.013c-0.626,0.039-1.217,0.072-1.607-0.252c-3.14-5.789-6.43-10.536-10.055-14.508l0.039-0.171
		c4.975,0.183,7.178,4.605,9.12,8.517c0.532,1.072,1.035,2.084,1.577,2.985l0.007,0.01l0.007,0.009
		c0.871,1.071,1.941,1.594,2.978,2.101c0.171,0.084,0.348,0.172,0.522,0.261C302.023,55.91,301.623,56.066,301.147,56.229
		L301.147,56.229z"/>
	<path clip-path="url(#SVGID_2_)" fill="#0062AF" d="M282.9,13.344c-0.139,0.308-0.182,0.877-0.692,0.837
		c-0.416,0.09-0.742-0.127-0.976-0.389c-0.097-0.525,0.086-1.097,0.643-1.188C282.385,12.689,282.757,12.819,282.9,13.344
		L282.9,13.344z"/>
</g>
<path fill="#FFFFFF" d="M363.097,42.238l7.647,0.032c1.079,0.128,2.256,0.332,2.845,1.305c0.716,1.315,0.502,3.08,0.288,4.566
	c-0.63,1.957-2.812,2.502-4.523,3.112c-1.562,0.567-3.145,1.112-4.693,1.722c-0.483,0.256-0.568,0.802-0.515,1.358l0.075,0.054
	l8.427-0.032c0.428,0,0.78-0.246,1.122-0.438l-0.021,3.262l-12.737,0.054l0.054-4.749c0.074-0.535,0.226-1.059,0.566-1.465
	c1.433-1.123,3.241-1.54,4.931-2.15c1.251-0.502,2.588-0.802,3.774-1.497c0.589-0.374,0.481-1.037,0.385-1.615
	c-0.085-0.214-0.171-0.438-0.385-0.567l-0.599-0.149l-7.593,0.021c-0.407,0.053-0.792,0.214-1.08,0.492
	c-0.043-1.048-0.021-2.203-0.021-3.262C361.738,42.238,362.456,42.302,363.097,42.238L363.097,42.238z"/>
<path fill="#FFFFFF" d="M389.782,44.494c0.641,2.256,0.405,4.844,0.31,7.24c-0.182,1.872-0.321,4.01-2.215,4.93
	c-2.212,0.834-4.78,0.546-7.282,0.535c-1.732-0.085-3.614-0.417-4.438-2.053c-0.576-1.219-0.502-2.727-0.566-4.16
	c0-2.085-0.085-4.267,0.46-6.256c0.428-1.401,1.754-2.246,3.08-2.566c2.396-0.332,4.94-0.363,7.369-0.075
	C387.889,42.259,389.333,43.114,389.782,44.494L389.782,44.494z"/>
<path fill="#0062AF" d="M386.52,45.627c0.545,1.946,0.363,3.936,0.257,6.032c-0.14,0.866-0.074,1.946-0.974,2.459
	c-1.272,0.652-2.845,0.268-4.288,0.332c-0.375-0.011-0.717-0.171-1.08-0.15c-0.246-0.171-0.565-0.182-0.792-0.385
	c-0.748-0.973-0.491-2.363-0.62-3.593c0.055-1.529-0.054-3.026,0.387-4.385c0.565-1.347,2.158-1.155,3.389-1.262
	C384.125,44.793,385.674,44.504,386.52,45.627L386.52,45.627z"/>
<path d="M19.136,114.518c0.085-0.26,4.849-9.529,4.849-9.529L51,104.907c0,0,4.805,0.778,4.849-6.927
	c0.021-3.555-1.281-6.321-5.456-6.494c-2.855-0.119-31.257,0-31.257,0V114.518L19.136,114.518z M0,78.143h57.753
	c0,0,13.161-0.363,13.508,11.958c0.347,12.295,0.173,13.854,0.173,13.854s-1.039,8.659-11.43,9.004l-0.086,0.606
	c0,0,2.771-0.087,4.156,1.559c2.207,2.621,4.242,7.013,4.242,7.013l8.92,19.742c0,0,1.645,3.725,3.289,3.811H60.87
	c0,0-1.299-0.866-3.724-6.927c-3.53-8.826-5.888-14.979-5.888-14.979s-1.905-5.11-8.14-5.196c-7.187-0.099-24.07,0-24.07,0v20.166
	c0,0,1.383,7.015,3.289,7.015H0.865c0,0,2.424-2.236,2.424-6.928c0-3.982-0.003-56.281-0.003-56.281S2.424,78.316,0,78.143L0,78.143
	z"/>
<path d="M140.979,94.863c0-2.424-5.368-3.723-5.368-3.723H98.377v21.647l4.85-8.399c0,0,31.565,0,33.77,0
	c2.164,0,3.723-2.51,3.723-2.51v18.009c-0.692-1.559-4.156-2.252-4.156-2.252H98.291v15.067c0,0,35.155,0.173,38.965,0
	c3.81-0.174,4.676-3.117,4.676-3.117v16.105H77.684c4.675,0.346,4.502-5.022,4.502-5.022s0-52.472,0-56.628
	c0-4.156-3.291-5.888-3.291-5.888h62.171L140.979,94.863L140.979,94.863z"/>
<path d="M229.898,102.904c-0.838,7.612-1.668,19.596,1.488,26.204c1.992,4.172,5.062,4.548,8.75,5.095
	c7.944,1.177,17.446,1.599,25.645-0.866c3.009-0.903,4.21-4.513,4.621-7.429c1.379-9.791,1.927-19.186-0.527-29.023
	c-0.992-3.979-4.699-5.017-8.209-5.987c-4.083-1.129-17.105-1.649-25.525,0.728C230.291,93.277,230.49,97.53,229.898,102.904
	L229.898,102.904z M214.899,100.509c1.146-8.809,2.985-20.453,12.21-22.023c14.258-2.427,38.717-1.715,49.042,1.318
	c4.975,1.461,9.269,5.49,9.798,10.431c1.659,15.491,2.366,31.583-2.448,46.685c-2.619,8.217-9.024,8.386-15.323,9.508
	c-4.709,0.841-31.709,2.946-45.15-3.424c-4.242-2.01-6.199-6.989-6.814-10.847C214.408,120.871,213.661,110.042,214.899,100.509
	L214.899,100.509z"/>
<path d="M404.041,140.212c0.369,2.95,0.224,3.174,2.07,5.532c-6.468,0-13.533,0-20.002,0c1-1.414,1.426-3.951,1.676-6.396v-0.304
	c-0.011-0.477-0.067-47.565-0.074-47.766c-0.252,0.025-18.466-0.045-21.19,0.122l-0.087,0.169c-1.863,0.38-3.061,1.19-3.962,1.83
	c0-4.851,0-10.369,0-15.221c21.809-0.097,42.772-0.013,65.286-0.019c-0.122,4.868,0.051,10.672,0.088,15.586
	c-1.311-2.151-4.415-2.63-5.021-2.61c-0.679,0.023-18.771-0.117-18.77-0.074c0.048,0.945-0.003,48.562-0.015,48.631"/>
<path d="M189.604,108.004c7.519,0.061,7.658-3.562,7.773-7.98c0.035-1.337,0.703-8.888-7.951-8.821
	c-2.938,0.023-24.574,0.078-26.193,0.016c-0.213,8.401,0.158,23.581,0,25.587c0.236-0.439,5.562-8.742,5.562-8.742l0,0
	C173.557,108.053,183.662,107.958,189.604,108.004L189.604,108.004z M147.94,83.84c0.059-2.036-1.898-4.573-2.817-5.698
	c19.633,0.086,34.963-0.23,56.364,0c9.896,0.106,10.644,12.585,11.079,21.017c0.168,3.253-1.074,11.598-2.604,14.601
	c-1.627,3.19-4.016,6.25-7.572,6.702c-12.77,1.625-35.891,0.91-38.895,0.976c0.002,16.876-1.232,17.157,2.939,24.245
	c-6.698,0-14.168,0-20.867,0c1.537-1.28,2.703-3.009,2.703-6.581c0.007-21.194-0.407-42.052-0.331-54.742V83.84L147.94,83.84z"/>
<path d="M308.094,114.518c0.086-0.26,4.849-9.529,4.849-9.529l27.016-0.082c0,0,4.806,0.778,4.849-6.927
	c0.021-3.555-1.28-6.321-5.455-6.494c-2.854-0.119-31.258,0-31.258,0V114.518L308.094,114.518z M288.958,78.143h57.754
	c0,0,13.161-0.363,13.508,11.958c0.347,12.295,0.173,13.854,0.173,13.854s-1.039,8.659-11.429,9.004l-0.088,0.606
	c0,0,2.771-0.087,4.158,1.559c2.205,2.621,4.242,7.013,4.242,7.013l8.918,19.742c0,0,1.645,3.725,3.29,3.811H349.83
	c0,0-1.3-0.866-3.725-6.927c-3.53-8.826-5.888-14.979-5.888-14.979s-1.905-5.11-8.139-5.196c-7.188-0.099-24.071,0-24.071,0v19.829
	c0,0,1.383,7.352,3.289,7.352h-21.474c0,0,2.425-2.574,2.425-7.266c0-3.981-0.173-55.943-0.173-55.943
	S291.383,78.316,288.958,78.143L288.958,78.143z"/>
<path d="M492.873,94.863c0-2.424-5.368-3.723-5.368-3.723h-37.233v21.647l4.85-8.399c0,0,31.564,0,33.769,0
	c2.165,0,3.724-2.51,3.724-2.51v18.009c-0.692-1.559-4.155-2.252-4.155-2.252h-38.273v15.067c0,0,35.155,0.173,38.965,0
	c3.811-0.174,4.676-3.117,4.676-3.117v16.158h-62.452c3.376-0.053,2.708-7.271,2.708-7.271s0-50.277,0-54.433
	c0-4.156-3.291-5.888-3.291-5.888h62.17L492.873,94.863L492.873,94.863z"/>
<path d="M519.37,114.518c-0.021,0.061,4.848-9.529,4.848-9.529l27.016-0.082c0,0,4.806,0.778,4.85-6.927
	c0.021-3.555-1.281-6.321-5.456-6.494c-2.854-0.119-31.257,0-31.257,0V114.518L519.37,114.518z M500.232,78.143h57.754
	c0,0,13.161-0.025,13.51,12.296c0.346,12.295,0.172,13.855,0.172,13.855s-1.038,8.658-11.429,9.004l-0.087,0.606
	c0,0,2.771-0.087,4.156,1.559c2.206,2.62,4.242,7.014,4.242,7.014l8.919,19.741c0,0,1.645,3.725,3.29,3.811h-19.655
	c0,0-1.299-0.866-3.724-6.927c-3.53-8.826-5.887-14.979-5.887-14.979s-1.906-5.11-8.141-5.196c-7.187-0.099-24.071,0-24.071,0
	v19.828c0,0,1.385,7.015,3.291,7.015h-21.475c0,0,2.424-2.236,2.424-6.928c0-3.982-0.004-56.281-0.004-56.281
	S502.657,78.316,500.232,78.143L500.232,78.143z"/>
<path fill="#FFFFFF" d="M396.495,42.391l0.052,0.094l-0.052,1.187l0.104,12.254c0.115,0.346,0.147,0.808,0.473,1.082
	c-0.851,0.116-1.952-0.031-2.866,0.053c-0.431,0-0.956,0-1.387,0l-0.052-0.053c0.294-0.294,0.378-0.714,0.399-1.134l-0.095-10.154
	c-0.137-0.472-0.661-0.641-1.061-0.661c-0.242,0.01-0.505-0.021-0.736,0.031c0.504-0.893,1.029-1.774,1.492-2.677l0.105-0.053
	C394.068,42.412,395.318,42.38,396.495,42.391L396.495,42.391z"/>
<path fill="#FFFFFF" d="M408.886,42.308c1.067-0.011,2.1,0.437,2.686,1.406c0.597,1.098,0.49,2.451,0.362,3.688
	c-0.053,0.82-0.49,1.705-1.278,1.993c-0.256,0.085-0.522,0.139-0.768,0.256c0.885,0.203,1.918,0.714,2.195,1.662
	c0.288,1.108,0.246,2.249,0.032,3.378c-0.225,0.906-0.885,1.897-1.79,2.249c-0.587,0.213-1.246,0.224-1.897,0.288l-9.814-0.032
	v-3.09c0.352,0.096,0.703,0.341,1.15,0.277l8.259-0.021c0.513-0.085,0.896-0.511,1.023-1.002c0.064-0.639,0.128-1.406-0.288-1.918
	c-0.959-0.874-2.471-0.447-3.751-0.564l-3.633,0.032c-0.288,0.085-0.598,0.128-0.874,0.256l-0.021-3.123l0.053-0.128
	c0.299,0.16,0.65,0.213,0.991,0.256l6.372-0.021c0.288-0.053,0.565-0.277,0.693-0.544c0.17-0.309,0.075-0.724,0.17-1.076
	c-0.127-0.096,0.054-0.224-0.042-0.33c-0.075-0.277-0.138-0.576-0.383-0.768c-0.448-0.202-0.95-0.245-1.46-0.277l-6.854,0.021
	c-0.318,0.074-0.648,0.138-0.927,0.309c-0.095-1.012-0.032-2.099-0.052-3.144l0.287-0.053L408.886,42.308L408.886,42.308z"/>
</svg>
