<?xml version="1.0" encoding="utf-8"?>
<!-- Generator: Adobe Illustrator 16.0.4, SVG Export Plug-In . SVG Version: 6.00 Build 0)  -->
<!DOCTYPE svg PUBLIC "-//W3C//DTD SVG 1.1//EN" "http://www.w3.org/Graphics/SVG/1.1/DTD/svg11.dtd">
<svg version="1.1"
	 id="Layer_1" sodipodi:docname="WMF-Agora-Settings.svg" inkscape:version="0.48.3.1 r9886" xmlns:dc="http://purl.org/dc/elements/1.1/" xmlns:cc="http://creativecommons.org/ns#" xmlns:rdf="http://www.w3.org/1999/02/22-rdf-syntax-ns#" xmlns:svg="http://www.w3.org/2000/svg" xmlns:sodipodi="http://sodipodi.sourceforge.net/DTD/sodipodi-0.dtd" xmlns:inkscape="http://www.inkscape.org/namespaces/inkscape"
	 xmlns="http://www.w3.org/2000/svg" xmlns:xlink="http://www.w3.org/1999/xlink" x="0px" y="0px" width="32px" height="32px"
	 viewBox="0 0 32 32" enable-background="new 0 0 32 32" xml:space="preserve">
<sodipodi:namedview  inkscape:current-layer="Layer_1" inkscape:window-maximized="1" inkscape:window-y="27" inkscape:window-x="0" inkscape:guide-bbox="true" inkscape:window-height="1024" inkscape:window-width="1920" inkscape:pageshadow="2" inkscape:pageopacity="0" inkscape:cy="-0.60392231" inkscape:cx="-22.73259" inkscape:zoom="5.6568542" showguides="true" showgrid="false" guidetolerance="10" gridtolerance="10" objecttolerance="10" borderopacity="1" pagecolor="#ffffff" bordercolor="#666666" id="namedview3">
	</sodipodi:namedview>
<path id="rect3381-0" inkscape:connector-curvature="0" fill="#FFFFFF" d="M14.271,3.493c-0.414,0-0.748,0.333-0.748,0.748v1.9
	c-0.967,0.24-1.898,0.626-2.772,1.153L9.412,5.954c-0.293-0.293-0.767-0.293-1.06,0l-2.43,2.43c-0.292,0.293-0.292,0.766,0,1.059
	l1.339,1.339c-0.522,0.872-0.884,1.813-1.122,2.772h-1.9c-0.414,0-0.748,0.333-0.748,0.748v3.426c0,0.415,0.333,0.748,0.748,0.748
	H6.11c0.24,0.968,0.626,1.897,1.152,2.772l-1.339,1.339c-0.292,0.293-0.292,0.767,0,1.06l2.43,2.43c0.293,0.292,0.766,0.292,1.06,0
	l1.339-1.34c0.878,0.53,1.806,0.882,2.772,1.122v1.899c0,0.414,0.333,0.748,0.748,0.748h3.426c0.414,0,0.748-0.334,0.748-0.748
	v-1.899c0.969-0.239,1.896-0.596,2.772-1.122l1.34,1.34c0.293,0.292,0.766,0.292,1.06,0l2.429-2.43c0.293-0.293,0.293-0.767,0-1.06
	l-1.339-1.339c0.526-0.873,0.911-1.811,1.152-2.772h1.899c0.414,0,0.748-0.333,0.748-0.748v-3.426c0-0.414-0.334-0.748-0.748-0.748
	h-1.899c-0.238-0.961-0.632-1.902-1.152-2.772l1.339-1.339c0.293-0.293,0.293-0.766,0-1.059l-2.429-2.43
	c-0.294-0.293-0.767-0.293-1.06,0l-1.34,1.339c-0.876-0.525-1.809-0.914-2.772-1.153v-1.9c0-0.414-0.334-0.748-0.748-0.748H14.271z
	 M15.86,11.281c1.211-0.032,2.447,0.377,3.395,1.277c1.897,1.799,1.986,4.799,0.188,6.697c-1.795,1.894-4.798,1.976-6.698,0.188
	c-1.897-1.8-1.986-4.8-0.187-6.698C13.458,11.796,14.648,11.313,15.86,11.281z"/>
</svg>
