<?xml version="1.0" encoding="utf-8"?>
<!-- Generator: Adobe Illustrator 15.0.0, SVG Export Plug-In . SVG Version: 6.00 Build 0)  -->
<!DOCTYPE svg PUBLIC "-//W3C//DTD SVG 1.1//EN" "http://www.w3.org/Graphics/SVG/1.1/DTD/svg11.dtd">
<svg version="1.1" id="Layer_1" xmlns="http://www.w3.org/2000/svg" xmlns:xlink="http://www.w3.org/1999/xlink" x="0px" y="0px"
	 width="719.074px" height="74.135px" viewBox="0 0 719.074 74.135" enable-background="new 0 0 719.074 74.135"
	 xml:space="preserve">
<path d="M168.544,2.303c-2.046,4.875-6.205,7.874-10.548,7.874c-2.242,0-4.239-0.492-5.87-0.966
	c-1.041-0.301-2.722-0.892-3.788-0.892c-1.737,0-3.823,1.024-4.233,3.343l-1.264-0.667c0-8.974,4.983-10.995,9.657-10.995
	c2.279,0,4.258,0.791,6.09,1.561c1.6,0.671,3.432,1.56,5.201,1.56c1.975,0,2.893-0.927,3.863-1.931L168.544,2.303L168.544,2.303z"/>
<path d="M176.565,1.785c-1.75,1.266-2.823,3.113-2.823,7.947v30.083c0,11.782-4.426,21.691-17.606,21.691
	c-2.499,0-6.032-1.039-8.69-2.006c-3.409-1.243-6.57-2.08-9.954-2.08c-3.835,0-5.474,1.315-6.61,3.045l-1.115-0.816
	c0.773-5.915,3.842-12.999,10.401-12.999c4.787,0,8.195,3.103,10.696,6.24c1.427,1.787,2.421,3.204,3.417,4.308
	c1.049,1.164,2.065,1.782,2.971,1.782c0.308,0,0.529-0.027,0.817-0.074v-23.25h-2.6c-1.925,0-3.42,0.471-4.16,2.526l-0.966-0.447
	c-0.041-0.659-0.149-1.328-0.149-1.782c0-7.131,4.486-9.508,7.058-9.508h0.817v-5.348c0-3.361,0.881-5.002,1.858-6.165l0.892-0.296
	c-0.625,1.312-1.041,2.81-1.041,5.273v38.105c1.14-1.144,2.227-3.596,2.227-7.947V18.423c0-7.861,6.129-13.557,13.224-17.754
	L176.565,1.785L176.565,1.785z"/>
<path d="M120.409,52.22c-2.318,2.387-5.194,5.194-7.279,7.353c-5.22-1.113-7.874-4.411-7.874-11.44v-17.38
	c-1.763-1.527-3.674-3.036-5.126-4.084l-3.342,3.341v17.305c0,1.809,0.932,3.543,3.269,4.236v0.297l-7.652,7.725l-9.285-7.129V52.22
	c1.665-1.042,2.303-2.05,2.303-3.863V31.793c0-3.341-1.581-5.097-4.308-5.719v-0.52l7.65-7.726c5.134,1.783,7.192,4.976,7.725,9.806
	l9.584-9.806c2.956,2.021,7.952,5.622,10.472,7.652v20.797c0,3.005,1.135,4.873,3.863,5.571V52.22L120.409,52.22z"/>
<path d="M270.083,30.01c-6.153,4.579-10.534,7.876-15.523,11.587v4.382c2.689,1.756,4.914,3.126,7.501,4.606l4.159-4.16l1.263,1.338
	L255.82,59.648c-3.728-2.418-8.873-5.836-12.699-8.691V29.341c6.204-3.495,12.849-7.535,19.014-11.588
	C265.308,22.256,267.495,25.676,270.083,30.01 M260.203,35.06c-1.58-3.322-3.424-6.795-5.421-10.323l-0.222,0.223v14.408
	C255.764,38.507,258.251,36.568,260.203,35.06"/>
<path d="M240.371,18.422c-0.841,6.075-3.699,10.3-8.319,14.708c2.282,1.423,6.099,4.188,7.948,5.645v9.508
	c-5.772,3.208-9.826,5.905-15.895,11.142c-1.608-1.5-4.086-2.376-6.314-2.376c-2.897,0-6.025,1.48-7.503,3.045l-0.892-0.521
	c0.951-9.205,5.388-13.255,9.954-16.787c-1.832-1.296-5.709-4.196-7.428-5.646v-8.69c5.709-2.964,10.832-6.601,15.971-10.696
	c1.621,1.347,3.973,2.376,6.388,2.376c2.413,0,4.455-1.119,5.274-2.376L240.371,18.422L240.371,18.422z M234.874,28.153
	l-0.148-0.149c-1.216,0.468-2.636,0.818-3.937,0.818c-2.864,0-5.237-0.904-7.354-2.897l-0.149,0.074v6.164
	c1.216,1.118,2.787,2.371,4.011,3.194C230.305,33.169,232.803,30.82,234.874,28.153 M228.561,51.031v-6.908
	c-1.307-1.046-3.059-2.361-4.309-3.12c-4.415,3.008-8.269,6.188-10.324,9.435l0.074,0.073c1.679-0.871,3.859-1.559,7.131-1.559
	c2.819,0,5.44,0.784,7.28,2.153L228.561,51.031L228.561,51.031z"/>
<path d="M208.803,47.243c-6.043,3.613-12.859,7.941-18.942,12.33c-4.883-3.563-12.181-8.914-12.181-8.914V28.822
	c7.191-3.333,14.013-6.73,20.5-10.92c2.544,1.691,7.876,5.285,10.623,7.43V47.243L208.803,47.243z M197.437,51.476V30.679
	c-2.84-2.206-6.167-4.678-8.097-6.017l-0.297,0.15v21.167c2.573,1.803,5.112,3.472,8.245,5.573L197.437,51.476L197.437,51.476z"/>
<path d="M81.931,51.476c-2.92,3.03-5.253,5.603-7.725,8.097c-4.218-0.879-6.719-3.929-7.501-7.427l-9.359,7.502
	c-6.348-3.068-9.138-5.722-9.138-11.291c0-7.296,5.986-9.328,11.44-11.81v-0.149c-4.891-1.666-8.501-4.421-9.507-8.913
	c5.608-2.694,12.148-6.45,17.307-9.583c3.012,1.87,7.711,5.054,10.621,7.281v21.539c0,2.694,1.332,4.521,3.862,4.382V51.476
	L81.931,51.476z M66.705,33.574v-3.489c-2.235-2.041-5.099-4.079-7.502-5.497l-0.447,0.223c-0.207,0.993-0.223,1.959-0.223,2.897
	c0,2.912,1.207,5.628,3.046,8.021L66.705,33.574L66.705,33.574z M66.705,49.694V35.283c-4.071,1.691-8.096,3.119-8.096,8.617
	c0,4.602,2.751,6.511,5.274,7.874L66.705,49.694L66.705,49.694z"/>
<path d="M49.026,36.62c0,4.727-1.656,8.26-4.902,11.811c-1.622,1.77-3.683,3.445-6.09,5.424c-2.407,1.975-5.167,4.236-8.543,6.907
	c-2.672-2.193-7.727-4.53-13.815-4.53c-7.229,0-11.267,1.613-14.56,4.53L0,59.648c3.015-7.895,10.177-13.445,20.279-13.445
	c8.245,0,12.926,2.302,17.308,5.794c2.673-2.675,3.862-5.504,3.862-9.657c0-4.545-1.638-6.957-9.656-9.582
	c-2.136-0.7-4.607-1.501-7.726-2.303l-0.593,1.19c2.815,0.81,5.441,1.561,7.873,2.375c6.031,2.023,8.914,4.304,8.914,8.32
	c0,2.074-0.411,3.987-0.816,4.903l-0.298-0.075c0-7.08-1.01-9.167-8.245-11.586c-2.37-0.793-5.111-1.504-8.172-2.378
	c-3.475,6.26-7.004,10.176-12.85,10.176c-3.959,0-5.2-2-5.2-4.012c0-1.947,1.343-3.416,3.417-3.416c3.349,0,3.491,3.789,5.571,3.789
	c3.044,0,4.739-2.492,7.428-7.057l-4.235-1.413c-5.837-1.904-8.285-5.815-8.541-9.58l0.222-0.892
	c1.317,3.609,3.019,7.143,10.25,9.433c1.257,0.399,2.02,0.66,2.97,0.966l0.67-1.337C11.231,26.705,8.691,22.563,8.691,15.081
	c0-8.72,7.8-15.006,18.57-15.006c6.687,0,10.828,1.513,13.222,3.046l1.857-2.748l1.486,1.039c-4.526,6.13-8.434,11.8-12.552,17.754
	C44.664,22.519,49.026,26.939,49.026,36.62 M34.467,11.44c-1.969-3.69-5.818-7.502-11.663-7.502c-4.746,0-7.501,2.235-7.501,5.422
	c0,3.647,1.33,6.151,14.335,9.285C31.442,16.083,32.58,14.165,34.467,11.44"/>
<path d="M546.834,62.175c0,6.755-7.947,11.96-18.195,11.96c-3.18,0-7.346-0.885-11.145-1.932c-2.807-0.776-7.01-1.858-9.582-1.858
	c-4.004,0-5.795,1.43-7.354,3.344l-0.742-0.818c0.986-5.318,2.932-12.256,11.439-12.256c4.891,0,9.182,2.523,12.553,5.199
	c2.854,2.266,6.16,5.201,9.357,5.201c3.406,0,5.203-2.012,5.203-4.753c0-5.114-8.469-6.816-8.469-13.967v-0.223
	c-2.643,2.768-4.506,4.79-7.133,7.576c-3.391-2.044-9.947-6.252-12.775-8.243V31.72c0-2.78-1.148-4.683-3.416-4.977v-0.297
	c1.971-2.059,5.549-5.763,8.467-8.617c4.016,1.486,6.387,4.819,6.387,10.401v18.05c1.898,1.21,5.221,3.052,7.803,4.455l0.518-0.445
	V30.901c0-2.743-0.709-4.338-3.266-5.125v-0.295c3.297-3.266,5.699-5.741,7.799-7.874c2.059,1.537,6.213,4.744,9.652,7.429v0.296
	c-2.252,1.192-2.822,2.755-2.822,4.828v18.272C541.113,54.507,546.834,55.22,546.834,62.175"/>
<path d="M505.609,28.303c-1.844,2.015-5.729,5.745-7.949,7.651l-0.297-0.076c-1.074-2.485-3.551-6.835-5.199-9.283l-1.559,1.56
	v19.388c1.418,0.944,3.757,2.343,5.57,3.266l2.748-2.748l1.041,1.113c-7.182,7.289-10.326,10.474-10.326,10.474
	c-3.352-2.229-7.186-4.788-10.473-7.203V31.572c0-2.855-1.295-4.805-3.418-5.2v-0.296c2.604-2.478,5.596-5.493,8.098-8.246
	c3.486,0.989,6.094,4.312,6.535,8.617c3.611-3.669,5.543-5.691,8.543-8.617C500.826,20.013,503.977,25.014,505.609,28.303"/>
<path d="M475.453,51.924c-4.259,4.48-7.504,7.724-7.504,7.724c-4.682-1.504-7.191-5.059-7.426-9.581l-9.287,9.581
	c-2.785-1.719-8.104-5.385-10.621-7.279V32.165c0-2.963-0.809-4.669-3.344-5.274v-0.295c0,0,4.42-4.551,8.469-8.766
	c3.777,1.031,6.238,4.515,6.238,10.176v19.165c1.641,1.419,4.346,2.933,5.572,3.564l2.748-2.821V31.126
	c0-2.586-0.402-4.428-2.896-5.35v-0.37c2.475-2.461,5.842-5.647,7.875-7.576c2.787,2.263,7.057,5.403,9.21,7.057v0.296
	c-1.962,0.719-2.749,2.747-2.749,4.233v16.863c0,2.854,1.047,4.686,3.715,5.349V51.924L475.453,51.924z"/>
<path d="M436.455,28.006c-1.502,1.867-4.848,5.045-8.023,8.022h-0.295c-1.158-2.87-3.594-7.445-5.867-10.993l-0.67,0.446v21.096
	c1.648,1.277,4.684,2.99,6.908,4.084l3.789-3.789l1.26,1.264c-6.756,6.638-11.512,11.512-11.512,11.512
	c-4.066-2.512-7.476-4.769-11.809-8.02v-21.84c6.215-2.898,13.936-7.761,19.383-12.107
	C432.037,20.917,434.582,24.693,436.455,28.006"/>
<path d="M410.16,28.303c-1.846,2.015-5.729,5.745-7.947,7.651l-0.371-0.076c-1.078-2.485-3.479-6.835-5.127-9.283l-1.561,1.56
	v19.388c1.418,0.944,3.762,2.343,5.572,3.266l2.674-2.748l1.113,1.113c-7.182,7.289-10.324,10.474-10.324,10.474
	c-3.352-2.229-7.188-4.788-10.473-7.203V31.572c0-2.855-1.295-4.805-3.416-5.2v-0.296c2.602-2.478,5.596-5.493,8.094-8.246
	c3.486,0.989,6.021,4.312,6.463,8.617c3.611-3.669,5.541-5.691,8.543-8.617C405.301,20.013,408.527,25.014,410.16,28.303"/>
<path d="M380.373,30.011c-6.154,4.58-10.531,7.877-15.521,11.585v4.385c2.688,1.757,4.912,3.128,7.5,4.606l4.158-4.161l1.34,1.338
	l-11.664,11.884c-3.729-2.416-8.874-5.837-12.7-8.689V29.343c6.203-3.497,12.849-7.534,19.015-11.588
	C375.672,22.258,377.785,25.678,380.373,30.011 M370.568,35.062c-1.58-3.322-3.426-6.795-5.422-10.326l-0.295,0.225V39.37
	C366.055,38.507,368.617,36.57,370.568,35.062"/>
<path d="M352.074,52.221c-4.829,5.089-7.8,8.318-7.8,8.318c-5.174-1.711-8.468-5.074-8.468-12.329V14.003
	c-1.624-1.657-3.52-2.986-5.272-4.381l-0.597,0.667v15.042h2.822l-2.302,9.21h-0.594v16.863l1.635,0.891v0.222l-8.395,8.021
	l-10.398-8.243v-0.224c1.808-1.349,2.006-2.269,2.006-4.01v-13.52h-5.201l2.451-9.21h2.75v-6.685c0-4.696-1.786-7.432-5.944-9.658
	v42.118c0,5.339-2.085,10.325-8.616,10.325c-3.383,0-6.192-1.342-8.839-2.004c-2.438-0.613-4.595-1.34-7.131-1.34
	c-3.595,0-6.093,1.097-7.13,2.527l-1.039-0.815c0.672-6.328,3.941-11.887,11.215-11.887c1.518,0,2.971,0.358,4.308,0.892
	c1.841-1.162,2.229-3.41,2.229-7.874v-6.389h-2.229c-2.468,0-3.712,0.539-4.308,2.599l-1.262-0.445
	c-0.043-0.667-0.149-1.472-0.149-1.931c0-6.946,4.314-9.433,6.908-9.433h1.04v-4.531c0-7.178,5.095-10.777,15.303-17.902
	c0,0,2.535-1.789,3.936-2.748c7.176,1.447,11.794,5.273,13.37,11.104L337.44,0.114c3.203,2.089,7.476,5.235,10.251,7.503v39.181
	c0,3.785,1.648,4.64,4.383,4.905V52.221L352.074,52.221z M328.526,25.332V11.554l-1.856,1.93v11.848H328.526L328.526,25.332z
	 M328.526,50.661V34.542h-1.856v12.703C326.67,48.845,327.469,49.874,328.526,50.661 M307.506,49.918V8.098l-0.595-0.295
	c-0.949,1.12-1.188,2.06-1.188,4.084V36.77c0,7.008-4.291,10.614-12.404,12.776v0.15c1.943,1.07,3.198,1.849,5.646,3.937
	c1.752,1.495,3.621,2.302,5.347,2.302C306.526,55.935,307.506,54.304,307.506,49.918"/>
<path d="M689.658,24.441c-2.598,1.224-2.969,2.793-2.969,4.53v16.118c-6.389,5.053-11.439,9.064-18.051,14.485
	c-2.691-1.952-7.996-5.892-11.365-8.615c-1.033,1.049-6.672,6.749-8.467,8.615c-2.848-1.819-9.211-6.425-12.48-8.839v-20.65
	c0-2.475-1.389-4.156-3.195-4.604v-0.298c2.75-2.823,5.57-5.274,7.432-7.353c3.422,0.376,7.129,4.598,7.129,9.509v18.123
	c1.783,1.41,4.889,3.629,7.578,5.347l0.518-0.52V30.234c0-2.566-0.518-3.527-2.525-4.233v-0.297l7.949-7.948l8.764,6.461v0.298
	c-2.006,0.706-2.748,2.192-2.748,4.011V45.24c2.08,1.632,5.572,4.047,7.949,5.569l0.148-0.074v-20.65
	c0-2.035-0.521-3.305-2.525-4.084v-0.373l8.021-7.872l8.838,6.313V24.441L689.658,24.441z"/>
<path d="M613.523,0.895c-1.078,7.203-5.869,11.179-11.219,11.439v48.654h-1.709c-16.264-26.073-26.324-42.179-28.15-44.94h-0.15
	v32.015c4.082,0.071,7.891,1.783,10.551,3.786l2.006-2.152l1.334,1.264l-9.877,10.1c-1.529-1.608-6.465-3.342-9.064-3.342
	c-4.678,0-7.758,1.441-9.207,2.97l-0.746-0.741c1.328-7.529,6.67-11.544,13.594-11.885V33.725h-2.895
	c-1.65,0-3.168,0.484-4.16,2.451l-1.041-0.446c-0.043-0.662-0.076-1.177-0.076-1.633c0-7.158,4.014-9.582,7.059-9.582h1.113V12.853
	c-1.379-2.3-3.012-4.159-5.35-4.159c-1.705,0-2.822,0.519-3.635,1.558l-0.965-0.742c1.521-6.305,5.258-9.359,10.098-9.359
	c4.746,0,7.826,3.042,11.365,8.542c8.748,13.583,18.422,29.339,18.422,29.339h0.148v-25.7c-3.121,0-5.904-1.04-8.244-2.823
	l-1.637,1.559l-1.186-1.188c4.584-4.547,7.139-7.34,9.432-9.804c1.152,1.225,3.42,2.673,6.76,2.673c2.844,0,5.125-1.039,6.389-2.451
	L613.523,0.895L613.523,0.895z"/>
<path d="M719.074,18.424c-0.84,6.075-3.773,10.3-8.395,14.707c2.283,1.423,6.1,4.188,7.947,5.646v9.507
	c-5.77,3.21-9.75,5.907-15.818,11.145c-1.609-1.502-4.162-2.378-6.389-2.378c-2.898,0-6.025,1.48-7.502,3.045l-0.893-0.521
	c0.949-9.204,5.387-13.255,9.951-16.786c-1.832-1.295-5.707-4.198-7.428-5.647v-8.689c5.709-2.965,10.834-6.6,15.971-10.696
	c1.623,1.346,3.977,2.377,6.389,2.377c2.414,0,4.457-1.121,5.275-2.377L719.074,18.424L719.074,18.424z M713.504,28.156
	l-0.074-0.151c-1.217,0.466-2.713,0.817-4.014,0.817c-2.863,0-5.234-0.903-7.352-2.895l-0.148,0.074v6.165
	c1.215,1.117,2.785,2.37,4.01,3.194C708.934,33.168,711.434,30.82,713.504,28.156 M707.189,51.033v-6.909
	c-1.307-1.045-2.982-2.361-4.234-3.119c-4.416,3.007-8.268,6.189-10.326,9.434l0.078,0.074c1.676-0.872,3.783-1.56,7.055-1.56
	c2.82,0,5.439,0.783,7.279,2.154L707.189,51.033L707.189,51.033z"/>
<path d="M634.098,30.011c-6.154,4.58-10.531,7.877-15.523,11.585v4.385c2.691,1.757,4.914,3.128,7.502,4.606l4.158-4.161l1.34,1.338
	L619.91,59.648c-3.73-2.416-8.875-5.837-12.701-8.689V29.343c6.203-3.497,12.852-7.534,19.016-11.588
	C629.398,22.258,631.508,25.678,634.098,30.011 M624.293,35.062c-1.582-3.322-3.426-6.795-5.422-10.326l-0.297,0.225V39.37
	C619.779,38.507,622.34,36.57,624.293,35.062"/>
</svg>
